STARTFONT 2.1
COMMENT "12-point bold 3270 font"
COMMENT "Uses nonstandard ordering:"
COMMENT " Page 0: EBCDIC US-International set, CG order"
COMMENT " Page 1: EBCDIC APL/APL2 set, CG order (incomplete)"
COMMENT " Page 2: (first 16 characters only) DEC line-drawing characters from"
COMMENT "  fixed-width X fonts"
COMMENT ""
COMMENT "Copyright (c) 1993-2009, Paul Mattes."
COMMENT "All rights reserved."
COMMENT ""
COMMENT "Redistribution and use in source and binary forms, with or"
COMMENT "without modification, are permitted provided that the following"
COMMENT "conditions are met:"
COMMENT "    * Redistributions of source code must retain the above"
COMMENT "      copyright notice, this list of conditions and the following"
COMMENT "      disclaimer."
COMMENT "    * Redistributions in binary form must reproduce the above"
COMMENT "      copyright notice, this list of conditions and the following"
COMMENT "      disclaimer in the documentation and/or other materials"
COMMENT "      provided with the distribution."
COMMENT "    * Neither the name of Paul Mattes nor his contributors may"
COMMENT "      be used to endorse or promote products derived from this"
COMMENT "      software without specific prior written permission."
COMMENT ""
COMMENT "THIS SOFTWARE IS PROVIDED BY PAUL MATTES 'AS IS' AND ANY"
COMMENT "EXPRESS OR IMPLIED WARRANTIES, INCLUDING, BUT NOT LIMITED TO,"
COMMENT "THE IMPLIED WARRANTIES OF MERCHANTABILITY AND FITNESS FOR"
COMMENT "A PARTICULAR PURPOSE ARE DISCLAIMED. IN NO EVENT SHALL PAUL"
COMMENT "MATTES BE LIABLE FOR ANY DIRECT, INDIRECT, INCIDENTAL, SPECIAL,"
COMMENT "EXEMPLARY, OR CONSEQUENTIAL DAMAGES (INCLUDING, BUT NOT LIMITED"
COMMENT "TO, PROCUREMENT OF SUBSTITUTE GOODS OR SERVICES; LOSS OF USE,"
COMMENT "DATA, OR PROFITS; OR BUSINESS INTERRUPTION) HOWEVER CAUSED"
COMMENT "AND ON ANY THEORY OF LIABILITY, WHETHER IN CONTRACT, STRICT"
COMMENT "LIABILITY, OR TORT (INCLUDING NEGLIGENCE OR OTHERWISE) ARISING"
COMMENT "IN ANY WAY OUT OF THE USE OF THIS SOFTWARE, EVEN IF ADVISED OF"
COMMENT "THE POSSIBILITY OF SUCH DAMAGE."
FONT 3270-12bold
SIZE 12 72 72
FONTBOUNDINGBOX 7 12 0 -2
STARTPROPERTIES 17
FONTNAME_REGISTRY ""
FOUNDRY "Misc"
FAMILY_NAME "3270"
WEIGHT_NAME "Bold"
SLANT "R"
SETWIDTH_NAME "Normal"
PIXEL_SIZE 12
POINT_SIZE 120
RESOLUTION_X 72
RESOLUTION_Y 72
SPACING "C"
CHARSET_REGISTRY "3270cg"
CHARSET_ENCODING "1"
AVERAGE_WIDTH 60
FONT_ASCENT 10
FONT_DESCENT 2
DEFAULT_CHAR 514
ENDPROPERTIES
CHARS 314
STARTCHAR null
ENCODING 0
SWIDTH 42 0
DWIDTH 7 0
BBX 7 12 0 -2
BITMAP
00
00
00
00
00
00
00
00
00
00
00
00
ENDCHAR
STARTCHAR nobreakspace
ENCODING 1
SWIDTH 42 0
DWIDTH 7 0
BBX 7 12 0 -2
BITMAP
00
00
00
00
00
00
00
00
00
00
00
00
ENDCHAR
STARTCHAR euro
ENCODING 2
SWIDTH 42 0
DWIDTH 7 0
BBX 7 12 0 -2
BITMAP
00
3C
66
60
FC
60
F8
60
66
3C
00
00
ENDCHAR
STARTCHAR cr
ENCODING 3
SWIDTH 42 0
DWIDTH 7 0
BBX 7 12 0 -2
BITMAP
00
00
00
00
00
00
00
00
00
00
00
00
ENDCHAR
STARTCHAR nl
ENCODING 4
SWIDTH 42 0
DWIDTH 7 0
BBX 7 12 0 -2
BITMAP
00
00
00
00
00
00
00
00
00
00
00
00
ENDCHAR
STARTCHAR em
ENCODING 5
SWIDTH 42 0
DWIDTH 7 0
BBX 7 12 0 -2
BITMAP
00
00
00
00
00
00
00
00
00
00
00
00
ENDCHAR
STARTCHAR eightones
ENCODING 6
SWIDTH 42 0
DWIDTH 7 0
BBX 7 12 0 -2
BITMAP
00
00
00
3c
7e
7e
7e
7e
3c
00
00
00
ENDCHAR
STARTCHAR hyphen
ENCODING 7
SWIDTH 42 0
DWIDTH 7 0
BBX 7 12 0 -2
BITMAP
00
00
00
00
00
7e
00
00
00
00
00
00
ENDCHAR
STARTCHAR greater
ENCODING 8
SWIDTH 42 0
DWIDTH 7 0
BBX 7 12 0 -2
BITMAP
c0
60
30
18
0c
06
0c
18
30
60
c0
00
ENDCHAR
STARTCHAR less
ENCODING 9
SWIDTH 42 0
DWIDTH 7 0
BBX 7 12 0 -2
BITMAP
06
0c
18
30
60
c0
60
30
18
0c
06
00
ENDCHAR
STARTCHAR bracketleft
ENCODING 10
SWIDTH 42 0
DWIDTH 7 0
BBX 7 12 0 -2
BITMAP
3e
30
30
30
30
30
30
30
30
30
3e
00
ENDCHAR
STARTCHAR bracketright
ENCODING 11
SWIDTH 42 0
DWIDTH 7 0
BBX 7 12 0 -2
BITMAP
7c
0c
0c
0c
0c
0c
0c
0c
0c
0c
7c
00
ENDCHAR
STARTCHAR parenright
ENCODING 12
SWIDTH 42 0
DWIDTH 7 0
BBX 7 12 0 -2
BITMAP
30
18
18
0c
0c
0c
0c
0c
18
18
30
00
ENDCHAR
STARTCHAR parenleft
ENCODING 13
SWIDTH 42 0
DWIDTH 7 0
BBX 7 12 0 -2
BITMAP
0c
18
18
30
30
30
30
30
18
18
0c
00
ENDCHAR
STARTCHAR braceright
ENCODING 14
SWIDTH 42 0
DWIDTH 7 0
BBX 7 12 0 -2
BITMAP
70
18
18
18
18
0e
18
18
18
18
70
00
ENDCHAR
STARTCHAR braceleft
ENCODING 15
SWIDTH 42 0
DWIDTH 7 0
BBX 7 12 0 -2
BITMAP
0e
18
18
18
18
70
18
18
18
18
0e
00
ENDCHAR
STARTCHAR space
ENCODING 16
SWIDTH 42 0
DWIDTH 7 0
BBX 7 12 0 -2
BITMAP
00
00
00
00
00
00
00
00
00
00
00
00
ENDCHAR
STARTCHAR equal
ENCODING 17
SWIDTH 42 0
DWIDTH 7 0
BBX 7 12 0 -2
BITMAP
00
00
00
7e
00
00
00
7e
00
00
00
00
ENDCHAR
STARTCHAR apostrophe
ENCODING 18
SWIDTH 42 0
DWIDTH 7 0
BBX 7 12 0 -2
BITMAP
0c
0c
18
30
00
00
00
00
00
00
00
00
ENDCHAR
STARTCHAR quotedbl
ENCODING 19
SWIDTH 42 0
DWIDTH 7 0
BBX 7 12 0 -2
BITMAP
6c
6c
6c
6c
00
00
00
00
00
00
00
00
ENDCHAR
STARTCHAR slash
ENCODING 20
SWIDTH 42 0
DWIDTH 7 0
BBX 7 12 0 -2
BITMAP
06
06
0c
0c
18
18
30
30
60
60
00
00
ENDCHAR
STARTCHAR backslash
ENCODING 21
SWIDTH 42 0
DWIDTH 7 0
BBX 7 12 0 -2
BITMAP
60
60
30
30
18
18
0c
0c
06
06
00
00
ENDCHAR
STARTCHAR bar
ENCODING 22
SWIDTH 42 0
DWIDTH 7 0
BBX 7 12 0 -2
BITMAP
18
18
18
18
18
18
18
18
18
18
18
18
ENDCHAR
STARTCHAR brokenbar
ENCODING 23
SWIDTH 42 0
DWIDTH 7 0
BBX 7 12 0 -2
BITMAP
18
18
18
18
00
00
00
18
18
18
18
00
ENDCHAR
STARTCHAR question
ENCODING 24
SWIDTH 42 0
DWIDTH 7 0
BBX 7 12 0 -2
BITMAP
3c
66
66
06
0c
18
18
00
00
18
00
00
ENDCHAR
STARTCHAR exclam
ENCODING 25
SWIDTH 42 0
DWIDTH 7 0
BBX 7 12 0 -2
BITMAP
18
18
18
18
18
18
18
00
00
18
00
00
ENDCHAR
STARTCHAR dollar
ENCODING 26
SWIDTH 42 0
DWIDTH 7 0
BBX 7 12 0 -2
BITMAP
18
3c
7e
78
78
3c
1e
1e
7e
3c
18
00
ENDCHAR
STARTCHAR cent
ENCODING 27
SWIDTH 42 0
DWIDTH 7 0
BBX 7 12 0 -2
BITMAP
18
18
3c
7e
78
78
78
7e
3c
18
18
00
ENDCHAR
STARTCHAR sterling
ENCODING 28
SWIDTH 42 0
DWIDTH 7 0
BBX 7 12 0 -2
BITMAP
1c
36
30
30
fc
30
30
30
f0
fe
00
00
ENDCHAR
STARTCHAR yen
ENCODING 29
SWIDTH 42 0
DWIDTH 7 0
BBX 7 12 0 -2
BITMAP
66
66
3c
3c
18
7e
18
7e
18
18
00
00
ENDCHAR
STARTCHAR paragraph
ENCODING 30
SWIDTH 42 0
DWIDTH 7 0
BBX 7 12 0 -2
BITMAP
f8
cc
cc
cc
f8
c0
cc
de
cc
cc
0c
00
ENDCHAR
STARTCHAR currency
ENCODING 31
SWIDTH 42 0
DWIDTH 7 0
BBX 7 12 0 -2
BITMAP
00
c6
6c
38
6c
6c
38
6c
c6
00
00
00
ENDCHAR
STARTCHAR 0
ENCODING 32
SWIDTH 42 0
DWIDTH 7 0
BBX 7 12 0 -2
BITMAP
00
3c
66
66
66
7e
66
66
66
3c
00
00
ENDCHAR
STARTCHAR 1
ENCODING 33
SWIDTH 42 0
DWIDTH 7 0
BBX 7 12 0 -2
BITMAP
00
18
38
78
18
18
18
18
18
7e
00
00
ENDCHAR
STARTCHAR 2
ENCODING 34
SWIDTH 42 0
DWIDTH 7 0
BBX 7 12 0 -2
BITMAP
00
3c
66
06
06
0c
18
30
60
7e
00
00
ENDCHAR
STARTCHAR 3
ENCODING 35
SWIDTH 42 0
DWIDTH 7 0
BBX 7 12 0 -2
BITMAP
00
3c
66
06
06
1c
06
06
66
3c
00
00
ENDCHAR
STARTCHAR 4
ENCODING 36
SWIDTH 42 0
DWIDTH 7 0
BBX 7 12 0 -2
BITMAP
00
0c
6c
6c
6c
6c
7e
0c
0c
0c
00
00
ENDCHAR
STARTCHAR 5
ENCODING 37
SWIDTH 42 0
DWIDTH 7 0
BBX 7 12 0 -2
BITMAP
00
7e
60
60
7c
06
06
66
66
3c
00
00
ENDCHAR
STARTCHAR 6
ENCODING 38
SWIDTH 42 0
DWIDTH 7 0
BBX 7 12 0 -2
BITMAP
00
3c
66
60
60
7c
66
66
66
3c
00
00
ENDCHAR
STARTCHAR 7
ENCODING 39
SWIDTH 42 0
DWIDTH 7 0
BBX 7 12 0 -2
BITMAP
00
7e
66
06
0c
0c
0c
18
18
18
00
00
ENDCHAR
STARTCHAR 8
ENCODING 40
SWIDTH 42 0
DWIDTH 7 0
BBX 7 12 0 -2
BITMAP
00
3c
66
66
66
3c
66
66
66
3c
00
00
ENDCHAR
STARTCHAR 9
ENCODING 41
SWIDTH 42 0
DWIDTH 7 0
BBX 7 12 0 -2
BITMAP
00
3c
66
66
66
3e
06
06
66
3c
00
00
ENDCHAR
STARTCHAR ssharp
ENCODING 42
SWIDTH 42 0
DWIDTH 7 0
BBX 7 12 0 -2
BITMAP
30
78
d8
f0
d8
cc
c6
c6
e6
fc
00
00
ENDCHAR
STARTCHAR section
ENCODING 43
SWIDTH 42 0
DWIDTH 7 0
BBX 7 12 0 -2
BITMAP
3c
60
60
f0
d8
cc
66
36
1e
0c
0c
78
ENDCHAR
STARTCHAR numbersign
ENCODING 44
SWIDTH 42 0
DWIDTH 7 0
BBX 7 12 0 -2
BITMAP
36
36
36
7e
36
6c
fe
6c
6c
6c
00
00
ENDCHAR
STARTCHAR at
ENCODING 45
SWIDTH 42 0
DWIDTH 7 0
BBX 7 12 0 -2
BITMAP
18
3c
66
7e
7e
7e
7e
60
36
1c
00
00
ENDCHAR
STARTCHAR percent
ENCODING 46
SWIDTH 42 0
DWIDTH 7 0
BBX 7 12 0 -2
BITMAP
76
de
dc
7c
18
18
3e
3a
7a
6e
00
00
ENDCHAR
STARTCHAR underscore
ENCODING 47
SWIDTH 42 0
DWIDTH 7 0
BBX 7 12 0 -2
BITMAP
00
00
00
00
00
00
00
00
00
00
fe
00
ENDCHAR
STARTCHAR ampersand
ENCODING 48
SWIDTH 42 0
DWIDTH 7 0
BBX 7 12 0 -2
BITMAP
38
6c
6c
38
30
7a
ce
cc
cc
7e
00
00
ENDCHAR
STARTCHAR minus
ENCODING 49
SWIDTH 42 0
DWIDTH 7 0
BBX 7 12 0 -2
BITMAP
00
00
00
00
00
7e
00
00
00
00
00
00
ENDCHAR
STARTCHAR period
ENCODING 50
SWIDTH 42 0
DWIDTH 7 0
BBX 7 12 0 -2
BITMAP
00
00
00
00
00
00
00
00
1c
1c
00
00
ENDCHAR
STARTCHAR comma
ENCODING 51
SWIDTH 42 0
DWIDTH 7 0
BBX 7 12 0 -2
BITMAP
00
00
00
00
00
00
00
00
1c
1c
0c
38
ENDCHAR
STARTCHAR colon
ENCODING 52
SWIDTH 42 0
DWIDTH 7 0
BBX 7 12 0 -2
BITMAP
00
00
00
1c
1c
00
00
00
1c
1c
00
00
ENDCHAR
STARTCHAR plus
ENCODING 53
SWIDTH 42 0
DWIDTH 7 0
BBX 7 12 0 -2
BITMAP
00
00
00
18
18
7e
18
18
00
00
00
00
ENDCHAR
STARTCHAR notsign
ENCODING 54
SWIDTH 42 0
DWIDTH 7 0
BBX 7 12 0 -2
BITMAP
00
00
fe
06
06
00
00
00
00
00
00
00
ENDCHAR
STARTCHAR macron
ENCODING 55
SWIDTH 42 0
DWIDTH 7 0
BBX 7 12 0 -2
BITMAP
00
fe
00
00
00
00
00
00
00
00
00
00
ENDCHAR
STARTCHAR degree
ENCODING 56
SWIDTH 42 0
DWIDTH 7 0
BBX 7 12 0 -2
BITMAP
38
6c
6c
38
00
00
00
00
00
00
00
00
ENDCHAR
STARTCHAR periodcentered
ENCODING 57
SWIDTH 42 0
DWIDTH 7 0
BBX 7 12 0 -2
BITMAP
00
00
00
00
00
1c
1c
00
00
00
00
00
ENDCHAR
STARTCHAR asciicircum
ENCODING 58
SWIDTH 42 0
DWIDTH 7 0
BBX 7 12 0 -2
BITMAP
00
18
3c
66
00
00
00
00
00
00
00
00
ENDCHAR
STARTCHAR asciitilde
ENCODING 59
SWIDTH 42 0
DWIDTH 7 0
BBX 7 12 0 -2
BITMAP
00
36
7e
6c
00
00
00
00
00
00
00
00
ENDCHAR
STARTCHAR diaeresis
ENCODING 60
SWIDTH 42 0
DWIDTH 7 0
BBX 7 12 0 -2
BITMAP
00
ee
ee
00
00
00
00
00
00
00
00
00
ENDCHAR
STARTCHAR grave
ENCODING 61
SWIDTH 42 0
DWIDTH 7 0
BBX 7 12 0 -2
BITMAP
00
30
18
0c
00
00
00
00
00
00
00
00
ENDCHAR
STARTCHAR acute
ENCODING 62
SWIDTH 42 0
DWIDTH 7 0
BBX 7 12 0 -2
BITMAP
00
0c
18
30
00
00
00
00
00
00
00
00
ENDCHAR
STARTCHAR cedilla
ENCODING 63
SWIDTH 42 0
DWIDTH 7 0
BBX 7 12 0 -2
BITMAP
00
00
00
00
00
00
00
00
0c
0c
0c
38
ENDCHAR
STARTCHAR agrave
ENCODING 64
SWIDTH 42 0
DWIDTH 7 0
BBX 7 12 0 -2
BITMAP
30
18
00
00
3c
06
3e
66
66
3e
00
00
ENDCHAR
STARTCHAR egrave
ENCODING 65
SWIDTH 42 0
DWIDTH 7 0
BBX 7 12 0 -2
BITMAP
30
18
00
00
3c
66
7e
60
66
3c
00
00
ENDCHAR
STARTCHAR igrave
ENCODING 66
SWIDTH 42 0
DWIDTH 7 0
BBX 7 12 0 -2
BITMAP
30
18
00
00
78
18
18
18
18
18
00
00
ENDCHAR
STARTCHAR ograve
ENCODING 67
SWIDTH 42 0
DWIDTH 7 0
BBX 7 12 0 -2
BITMAP
30
18
00
00
3c
66
66
66
66
3c
00
00
ENDCHAR
STARTCHAR ugrave
ENCODING 68
SWIDTH 42 0
DWIDTH 7 0
BBX 7 12 0 -2
BITMAP
30
18
00
00
66
66
66
66
6e
3e
00
00
ENDCHAR
STARTCHAR atilde
ENCODING 69
SWIDTH 42 0
DWIDTH 7 0
BBX 7 12 0 -2
BITMAP
1e
3c
00
00
3c
06
3e
66
66
3e
00
00
ENDCHAR
STARTCHAR otilde
ENCODING 70
SWIDTH 42 0
DWIDTH 7 0
BBX 7 12 0 -2
BITMAP
1e
3c
00
00
3c
66
66
66
66
3c
00
00
ENDCHAR
STARTCHAR ydiaeresis
ENCODING 71
SWIDTH 42 0
DWIDTH 7 0
BBX 7 12 0 -2
BITMAP
00
36
00
00
66
36
36
1e
1c
0c
0c
78
ENDCHAR
STARTCHAR Yacute
ENCODING 72
SWIDTH 42 0
DWIDTH 7 0
BBX 7 12 0 -2
BITMAP
06
0c
18
66
66
66
3c
18
18
18
00
00
ENDCHAR
STARTCHAR yacute
ENCODING 73
SWIDTH 42 0
DWIDTH 7 0
BBX 7 12 0 -2
BITMAP
06
0c
18
00
66
36
36
1e
1c
0c
0c
78
ENDCHAR
STARTCHAR eacute
ENCODING 74
SWIDTH 42 0
DWIDTH 7 0
BBX 7 12 0 -2
BITMAP
0c
18
00
00
3c
66
7e
60
66
3c
00
00
ENDCHAR
STARTCHAR onequarter
ENCODING 75
SWIDTH 42 0
DWIDTH 7 0
BBX 7 12 0 -2
BITMAP
30
70
30
30
78
00
1e
1e
1e
06
06
00
ENDCHAR
STARTCHAR onehalf
ENCODING 76
SWIDTH 42 0
DWIDTH 7 0
BBX 7 12 0 -2
BITMAP
30
70
30
30
78
00
1c
06
0c
18
1e
00
ENDCHAR
STARTCHAR threequarters
ENCODING 77
SWIDTH 42 0
DWIDTH 7 0
BBX 7 12 0 -2
BITMAP
70
18
30
18
70
00
1e
1e
1e
06
06
00
ENDCHAR
STARTCHAR udiaeresis
ENCODING 78
SWIDTH 42 0
DWIDTH 7 0
BBX 7 12 0 -2
BITMAP
00
66
00
00
66
66
66
66
6e
3e
00
00
ENDCHAR
STARTCHAR ccedilla
ENCODING 79
SWIDTH 42 0
DWIDTH 7 0
BBX 7 12 0 -2
BITMAP
00
00
00
3c
66
60
60
60
66
3c
18
78
ENDCHAR
STARTCHAR adiaeresis
ENCODING 80
SWIDTH 42 0
DWIDTH 7 0
BBX 7 12 0 -2
BITMAP
00
66
00
00
3c
06
3e
66
66
3e
00
00
ENDCHAR
STARTCHAR ediaeresis
ENCODING 81
SWIDTH 42 0
DWIDTH 7 0
BBX 7 12 0 -2
BITMAP
00
66
00
00
3c
66
7e
60
66
3c
00
00
ENDCHAR
STARTCHAR idiaeresis
ENCODING 82
SWIDTH 42 0
DWIDTH 7 0
BBX 7 12 0 -2
BITMAP
00
6c
00
00
78
18
18
18
18
18
00
00
ENDCHAR
STARTCHAR odiaeresis
ENCODING 83
SWIDTH 42 0
DWIDTH 7 0
BBX 7 12 0 -2
BITMAP
00
66
00
00
3c
66
66
66
66
3c
00
00
ENDCHAR
STARTCHAR mu
ENCODING 84
SWIDTH 42 0
DWIDTH 7 0
BBX 7 12 0 -2
BITMAP
00
00
00
66
66
66
66
66
7e
7e
60
60
ENDCHAR
STARTCHAR acircumflex
ENCODING 85
SWIDTH 42 0
DWIDTH 7 0
BBX 7 12 0 -2
BITMAP
18
3c
00
00
3c
06
3e
66
66
3e
00
00
ENDCHAR
STARTCHAR ecircumflex
ENCODING 86
SWIDTH 42 0
DWIDTH 7 0
BBX 7 12 0 -2
BITMAP
18
3c
00
00
3c
66
7e
60
66
3c
00
00
ENDCHAR
STARTCHAR icircumflex
ENCODING 87
SWIDTH 42 0
DWIDTH 7 0
BBX 7 12 0 -2
BITMAP
18
3c
00
00
78
18
18
18
18
18
00
00
ENDCHAR
STARTCHAR ocircumflex
ENCODING 88
SWIDTH 42 0
DWIDTH 7 0
BBX 7 12 0 -2
BITMAP
18
3c
00
00
3c
66
66
66
66
3c
00
00
ENDCHAR
STARTCHAR ucircumflex
ENCODING 89
SWIDTH 42 0
DWIDTH 7 0
BBX 7 12 0 -2
BITMAP
18
3c
00
00
66
66
66
66
6e
3e
00
00
ENDCHAR
STARTCHAR aacute
ENCODING 90
SWIDTH 42 0
DWIDTH 7 0
BBX 7 12 0 -2
BITMAP
0c
18
00
00
3c
06
3e
66
66
3e
00
00
ENDCHAR
STARTCHAR multiply
ENCODING 91
SWIDTH 42 0
DWIDTH 7 0
BBX 7 12 0 -2
BITMAP
00
00
00
66
3c
18
3c
66
00
00
00
00
ENDCHAR
STARTCHAR iacute
ENCODING 92
SWIDTH 42 0
DWIDTH 7 0
BBX 7 12 0 -2
BITMAP
0c
18
00
00
78
18
18
18
18
18
00
00
ENDCHAR
STARTCHAR oacute
ENCODING 93
SWIDTH 42 0
DWIDTH 7 0
BBX 7 12 0 -2
BITMAP
0c
18
00
00
3c
66
66
66
66
3c
00
00
ENDCHAR
STARTCHAR uacute
ENCODING 94
SWIDTH 42 0
DWIDTH 7 0
BBX 7 12 0 -2
BITMAP
0c
18
00
00
66
66
66
66
6e
3e
00
00
ENDCHAR
STARTCHAR ntilde
ENCODING 95
SWIDTH 42 0
DWIDTH 7 0
BBX 7 12 0 -2
BITMAP
1e
3c
00
00
7c
76
66
66
66
66
00
00
ENDCHAR
STARTCHAR Agrave
ENCODING 96
SWIDTH 42 0
DWIDTH 7 0
BBX 7 12 0 -2
BITMAP
18
0c
00
18
3c
3c
66
7e
66
66
00
00
ENDCHAR
STARTCHAR Egrave
ENCODING 97
SWIDTH 42 0
DWIDTH 7 0
BBX 7 12 0 -2
BITMAP
18
0c
00
7e
60
60
7e
60
60
7e
00
00
ENDCHAR
STARTCHAR Igrave
ENCODING 98
SWIDTH 42 0
DWIDTH 7 0
BBX 7 12 0 -2
BITMAP
30
18
00
7e
18
18
18
18
18
7e
00
00
ENDCHAR
STARTCHAR Ograve
ENCODING 99
SWIDTH 42 0
DWIDTH 7 0
BBX 7 12 0 -2
BITMAP
30
18
00
3c
66
66
66
66
66
3c
00
00
ENDCHAR
STARTCHAR Ugrave
ENCODING 100
SWIDTH 42 0
DWIDTH 7 0
BBX 7 12 0 -2
BITMAP
30
18
00
66
66
66
66
66
66
3c
00
00
ENDCHAR
STARTCHAR Atilde
ENCODING 101
SWIDTH 42 0
DWIDTH 7 0
BBX 7 12 0 -2
BITMAP
1e
3c
00
18
3c
3c
66
7e
66
66
00
00
ENDCHAR
STARTCHAR Otilde
ENCODING 102
SWIDTH 42 0
DWIDTH 7 0
BBX 7 12 0 -2
BITMAP
1e
3c
00
3c
66
66
66
66
66
3c
00
00
ENDCHAR
STARTCHAR onesuperior
ENCODING 103
SWIDTH 42 0
DWIDTH 7 0
BBX 7 12 0 -2
BITMAP
00
18
38
18
18
3c
00
00
00
00
00
00
ENDCHAR
STARTCHAR twosuperior
ENCODING 104
SWIDTH 42 0
DWIDTH 7 0
BBX 7 12 0 -2
BITMAP
00
38
0c
18
30
3c
00
00
00
00
00
00
ENDCHAR
STARTCHAR threesuperior
ENCODING 105
SWIDTH 42 0
DWIDTH 7 0
BBX 7 12 0 -2
BITMAP
00
38
0c
18
0c
38
00
00
00
00
00
00
ENDCHAR
STARTCHAR ordfeminine
ENCODING 106
SWIDTH 42 0
DWIDTH 7 0
BBX 7 12 0 -2
BITMAP
00
38
0c
3c
6c
3c
00
7c
00
00
00
00
ENDCHAR
STARTCHAR masculine
ENCODING 107
SWIDTH 42 0
DWIDTH 7 0
BBX 7 12 0 -2
BITMAP
00
38
6c
6c
6c
38
00
7c
00
00
00
00
ENDCHAR
STARTCHAR guillemotleft
ENCODING 108
SWIDTH 42 0
DWIDTH 7 0
BBX 7 12 0 -2
BITMAP
00
00
00
00
36
6c
36
00
00
00
00
00
ENDCHAR
STARTCHAR guillemotright
ENCODING 109
SWIDTH 42 0
DWIDTH 7 0
BBX 7 12 0 -2
BITMAP
00
00
00
00
6c
36
6c
00
00
00
00
00
ENDCHAR
STARTCHAR exclamdown
ENCODING 110
SWIDTH 42 0
DWIDTH 7 0
BBX 7 12 0 -2
BITMAP
18
00
00
18
18
18
18
18
18
18
00
00
ENDCHAR
STARTCHAR questiondown
ENCODING 111
SWIDTH 42 0
DWIDTH 7 0
BBX 7 12 0 -2
BITMAP
18
00
00
18
18
30
60
66
66
3c
00
00
ENDCHAR
STARTCHAR Adiaeresis
ENCODING 112
SWIDTH 42 0
DWIDTH 7 0
BBX 7 12 0 -2
BITMAP
00
66
00
18
3c
3c
66
7e
66
66
00
00
ENDCHAR
STARTCHAR Ediaeresis
ENCODING 113
SWIDTH 42 0
DWIDTH 7 0
BBX 7 12 0 -2
BITMAP
00
66
00
7e
60
60
7e
60
60
7e
00
00
ENDCHAR
STARTCHAR Idiaeresis
ENCODING 114
SWIDTH 42 0
DWIDTH 7 0
BBX 7 12 0 -2
BITMAP
00
66
00
7e
18
18
18
18
18
7e
00
00
ENDCHAR
STARTCHAR Odiaeresis
ENCODING 115
SWIDTH 42 0
DWIDTH 7 0
BBX 7 12 0 -2
BITMAP
00
66
00
3c
66
66
66
66
66
3c
00
00
ENDCHAR
STARTCHAR Udiaeresis
ENCODING 116
SWIDTH 42 0
DWIDTH 7 0
BBX 7 12 0 -2
BITMAP
00
66
00
66
66
66
66
66
66
3c
00
00
ENDCHAR
STARTCHAR Acircumflex
ENCODING 117
SWIDTH 42 0
DWIDTH 7 0
BBX 7 12 0 -2
BITMAP
18
3c
00
18
3c
3c
66
7e
66
66
00
00
ENDCHAR
STARTCHAR Ecircumflex
ENCODING 118
SWIDTH 42 0
DWIDTH 7 0
BBX 7 12 0 -2
BITMAP
18
3c
00
7e
60
60
7e
60
60
7e
00
00
ENDCHAR
STARTCHAR Icircumflex
ENCODING 119
SWIDTH 42 0
DWIDTH 7 0
BBX 7 12 0 -2
BITMAP
18
3c
00
7e
18
18
18
18
18
7e
00
00
ENDCHAR
STARTCHAR Ocircumflex
ENCODING 120
SWIDTH 42 0
DWIDTH 7 0
BBX 7 12 0 -2
BITMAP
18
3c
00
3c
66
66
66
66
66
3c
00
00
ENDCHAR
STARTCHAR Ucircumflex
ENCODING 121
SWIDTH 42 0
DWIDTH 7 0
BBX 7 12 0 -2
BITMAP
18
3c
00
66
66
66
66
66
66
3c
00
00
ENDCHAR
STARTCHAR Aacute
ENCODING 122
SWIDTH 42 0
DWIDTH 7 0
BBX 7 12 0 -2
BITMAP
0c
18
00
18
3c
3c
66
7e
66
66
00
00
ENDCHAR
STARTCHAR Eacute
ENCODING 123
SWIDTH 42 0
DWIDTH 7 0
BBX 7 12 0 -2
BITMAP
0c
18
00
7e
60
60
7e
60
60
7e
00
00
ENDCHAR
STARTCHAR Iacute
ENCODING 124
SWIDTH 42 0
DWIDTH 7 0
BBX 7 12 0 -2
BITMAP
0c
18
00
7e
18
18
18
18
18
7e
00
00
ENDCHAR
STARTCHAR Oacute
ENCODING 125
SWIDTH 42 0
DWIDTH 7 0
BBX 7 12 0 -2
BITMAP
0c
18
00
3c
66
66
66
66
66
3c
00
00
ENDCHAR
STARTCHAR Uacute
ENCODING 126
SWIDTH 42 0
DWIDTH 7 0
BBX 7 12 0 -2
BITMAP
0c
18
00
66
66
66
66
66
66
3c
00
00
ENDCHAR
STARTCHAR Ntilde
ENCODING 127
SWIDTH 42 0
DWIDTH 7 0
BBX 7 12 0 -2
BITMAP
1e
3c
00
66
76
76
7e
6e
6e
66
00
00
ENDCHAR
STARTCHAR a
ENCODING 128
SWIDTH 42 0
DWIDTH 7 0
BBX 7 12 0 -2
BITMAP
00
00
00
3c
66
06
3e
66
66
3e
00
00
ENDCHAR
STARTCHAR b
ENCODING 129
SWIDTH 42 0
DWIDTH 7 0
BBX 7 12 0 -2
BITMAP
00
60
60
7c
76
66
66
66
76
7c
00
00
ENDCHAR
STARTCHAR c
ENCODING 130
SWIDTH 42 0
DWIDTH 7 0
BBX 7 12 0 -2
BITMAP
00
00
00
3c
66
60
60
60
66
3c
00
00
ENDCHAR
STARTCHAR d
ENCODING 131
SWIDTH 42 0
DWIDTH 7 0
BBX 7 12 0 -2
BITMAP
00
06
06
3e
6e
66
66
66
6e
3e
00
00
ENDCHAR
STARTCHAR e
ENCODING 132
SWIDTH 42 0
DWIDTH 7 0
BBX 7 12 0 -2
BITMAP
00
00
00
3c
66
66
7e
60
66
3c
00
00
ENDCHAR
STARTCHAR f
ENCODING 133
SWIDTH 42 0
DWIDTH 7 0
BBX 7 12 0 -2
BITMAP
00
0e
18
18
7e
18
18
18
18
18
00
00
ENDCHAR
STARTCHAR g
ENCODING 134
SWIDTH 42 0
DWIDTH 7 0
BBX 7 12 0 -2
BITMAP
00
00
00
3e
6e
66
66
6e
3e
06
66
3c
ENDCHAR
STARTCHAR h
ENCODING 135
SWIDTH 42 0
DWIDTH 7 0
BBX 7 12 0 -2
BITMAP
00
60
60
7c
76
66
66
66
66
66
00
00
ENDCHAR
STARTCHAR i
ENCODING 136
SWIDTH 42 0
DWIDTH 7 0
BBX 7 12 0 -2
BITMAP
00
18
00
78
18
18
18
18
18
18
00
00
ENDCHAR
STARTCHAR j
ENCODING 137
SWIDTH 42 0
DWIDTH 7 0
BBX 7 12 0 -2
BITMAP
00
0c
00
3c
0c
0c
0c
0c
0c
0c
6c
38
ENDCHAR
STARTCHAR k
ENCODING 138
SWIDTH 42 0
DWIDTH 7 0
BBX 7 12 0 -2
BITMAP
00
60
60
6c
78
70
70
78
6c
66
00
00
ENDCHAR
STARTCHAR l
ENCODING 139
SWIDTH 42 0
DWIDTH 7 0
BBX 7 12 0 -2
BITMAP
00
3c
0c
0c
0c
0c
0c
0c
0c
0c
00
00
ENDCHAR
STARTCHAR m
ENCODING 140
SWIDTH 42 0
DWIDTH 7 0
BBX 7 12 0 -2
BITMAP
00
00
00
7c
7e
7e
7e
7e
7e
7e
00
00
ENDCHAR
STARTCHAR n
ENCODING 141
SWIDTH 42 0
DWIDTH 7 0
BBX 7 12 0 -2
BITMAP
00
00
00
7c
76
66
66
66
66
66
00
00
ENDCHAR
STARTCHAR o
ENCODING 142
SWIDTH 42 0
DWIDTH 7 0
BBX 7 12 0 -2
BITMAP
00
00
00
3c
66
66
66
66
66
3c
00
00
ENDCHAR
STARTCHAR p
ENCODING 143
SWIDTH 42 0
DWIDTH 7 0
BBX 7 12 0 -2
BITMAP
00
00
00
7c
76
66
66
66
76
7c
60
60
ENDCHAR
STARTCHAR q
ENCODING 144
SWIDTH 42 0
DWIDTH 7 0
BBX 7 12 0 -2
BITMAP
00
00
00
3e
6e
66
66
66
6e
3e
06
06
ENDCHAR
STARTCHAR r
ENCODING 145
SWIDTH 42 0
DWIDTH 7 0
BBX 7 12 0 -2
BITMAP
00
00
00
7c
76
60
60
60
60
60
00
00
ENDCHAR
STARTCHAR s
ENCODING 146
SWIDTH 42 0
DWIDTH 7 0
BBX 7 12 0 -2
BITMAP
00
00
00
3c
66
60
3c
06
66
3c
00
00
ENDCHAR
STARTCHAR t
ENCODING 147
SWIDTH 42 0
DWIDTH 7 0
BBX 7 12 0 -2
BITMAP
00
18
18
7e
18
18
18
18
18
0e
00
00
ENDCHAR
STARTCHAR u
ENCODING 148
SWIDTH 42 0
DWIDTH 7 0
BBX 7 12 0 -2
BITMAP
00
00
00
66
66
66
66
66
6e
3e
00
00
ENDCHAR
STARTCHAR v
ENCODING 149
SWIDTH 42 0
DWIDTH 7 0
BBX 7 12 0 -2
BITMAP
00
00
00
66
66
66
3c
3c
18
18
00
00
ENDCHAR
STARTCHAR w
ENCODING 150
SWIDTH 42 0
DWIDTH 7 0
BBX 7 12 0 -2
BITMAP
00
00
00
66
66
7e
7e
7e
7e
3c
00
00
ENDCHAR
STARTCHAR x
ENCODING 151
SWIDTH 42 0
DWIDTH 7 0
BBX 7 12 0 -2
BITMAP
00
00
00
66
66
3c
18
3c
66
66
00
00
ENDCHAR
STARTCHAR y
ENCODING 152
SWIDTH 42 0
DWIDTH 7 0
BBX 7 12 0 -2
BITMAP
00
00
00
66
66
36
36
1e
1c
0c
0c
78
ENDCHAR
STARTCHAR z
ENCODING 153
SWIDTH 42 0
DWIDTH 7 0
BBX 7 12 0 -2
BITMAP
00
00
00
7e
06
0c
18
30
60
7e
00
00
ENDCHAR
STARTCHAR ae
ENCODING 154
SWIDTH 42 0
DWIDTH 7 0
BBX 7 12 0 -2
BITMAP
00
00
00
fe
18
38
7e
d8
d8
7e
00
00
ENDCHAR
STARTCHAR oslash
ENCODING 155
SWIDTH 42 0
DWIDTH 7 0
BBX 7 12 0 -2
BITMAP
00
00
00
3e
66
6e
7e
76
66
fc
00
00
ENDCHAR
STARTCHAR aring
ENCODING 156
SWIDTH 42 0
DWIDTH 7 0
BBX 7 12 0 -2
BITMAP
3c
3c
00
3c
66
06
3e
66
66
3e
00
00
ENDCHAR
STARTCHAR division
ENCODING 157
SWIDTH 42 0
DWIDTH 7 0
BBX 7 12 0 -2
BITMAP
00
00
00
38
38
00
7c
00
38
38
00
00
ENDCHAR
STARTCHAR fm
ENCODING 158
SWIDTH 42 0
DWIDTH 7 0
BBX 7 12 0 -2
BITMAP
7e
7e
00
00
1c
1c
00
00
1c
1c
0c
38
ENDCHAR
STARTCHAR dup
ENCODING 159
SWIDTH 42 0
DWIDTH 7 0
BBX 7 12 0 -2
BITMAP
7e
7e
00
18
7e
3c
3c
7e
18
00
00
00
ENDCHAR
STARTCHAR A
ENCODING 160
SWIDTH 42 0
DWIDTH 7 0
BBX 7 12 0 -2
BITMAP
00
18
18
3c
3c
3c
66
7e
66
66
00
00
ENDCHAR
STARTCHAR B
ENCODING 161
SWIDTH 42 0
DWIDTH 7 0
BBX 7 12 0 -2
BITMAP
00
78
6c
6c
6c
7c
66
66
66
7c
00
00
ENDCHAR
STARTCHAR C
ENCODING 162
SWIDTH 42 0
DWIDTH 7 0
BBX 7 12 0 -2
BITMAP
00
3c
66
66
60
60
60
66
66
3c
00
00
ENDCHAR
STARTCHAR D
ENCODING 163
SWIDTH 42 0
DWIDTH 7 0
BBX 7 12 0 -2
BITMAP
00
78
6c
66
66
66
66
66
6c
78
00
00
ENDCHAR
STARTCHAR E
ENCODING 164
SWIDTH 42 0
DWIDTH 7 0
BBX 7 12 0 -2
BITMAP
00
7e
60
60
60
7c
60
60
60
7e
00
00
ENDCHAR
STARTCHAR F
ENCODING 165
SWIDTH 42 0
DWIDTH 7 0
BBX 7 12 0 -2
BITMAP
00
7e
60
60
60
7c
60
60
60
60
00
00
ENDCHAR
STARTCHAR G
ENCODING 166
SWIDTH 42 0
DWIDTH 7 0
BBX 7 12 0 -2
BITMAP
00
3c
66
60
60
6e
66
66
6e
3e
00
00
ENDCHAR
STARTCHAR H
ENCODING 167
SWIDTH 42 0
DWIDTH 7 0
BBX 7 12 0 -2
BITMAP
00
66
66
66
66
7e
66
66
66
66
00
00
ENDCHAR
STARTCHAR I
ENCODING 168
SWIDTH 42 0
DWIDTH 7 0
BBX 7 12 0 -2
BITMAP
00
7e
18
18
18
18
18
18
18
7e
00
00
ENDCHAR
STARTCHAR J
ENCODING 169
SWIDTH 42 0
DWIDTH 7 0
BBX 7 12 0 -2
BITMAP
00
3e
0c
0c
0c
0c
0c
6c
6c
38
00
00
ENDCHAR
STARTCHAR K
ENCODING 170
SWIDTH 42 0
DWIDTH 7 0
BBX 7 12 0 -2
BITMAP
00
66
6c
78
70
78
6c
6c
66
66
00
00
ENDCHAR
STARTCHAR L
ENCODING 171
SWIDTH 42 0
DWIDTH 7 0
BBX 7 12 0 -2
BITMAP
00
60
60
60
60
60
60
60
60
7e
00
00
ENDCHAR
STARTCHAR M
ENCODING 172
SWIDTH 42 0
DWIDTH 7 0
BBX 7 12 0 -2
BITMAP
00
c6
c6
ee
ee
fe
fe
c6
c6
c6
00
00
ENDCHAR
STARTCHAR N
ENCODING 173
SWIDTH 42 0
DWIDTH 7 0
BBX 7 12 0 -2
BITMAP
00
66
76
76
7e
7e
6e
6e
66
66
00
00
ENDCHAR
STARTCHAR O
ENCODING 174
SWIDTH 42 0
DWIDTH 7 0
BBX 7 12 0 -2
BITMAP
00
3c
66
66
66
66
66
66
66
3c
00
00
ENDCHAR
STARTCHAR P
ENCODING 175
SWIDTH 42 0
DWIDTH 7 0
BBX 7 12 0 -2
BITMAP
00
7c
66
66
66
7c
60
60
60
60
00
00
ENDCHAR
STARTCHAR Q
ENCODING 176
SWIDTH 42 0
DWIDTH 7 0
BBX 7 12 0 -2
BITMAP
00
3c
66
66
66
66
66
66
66
3c
18
0e
ENDCHAR
STARTCHAR R
ENCODING 177
SWIDTH 42 0
DWIDTH 7 0
BBX 7 12 0 -2
BITMAP
00
7c
66
66
66
7c
6c
66
66
66
00
00
ENDCHAR
STARTCHAR S
ENCODING 178
SWIDTH 42 0
DWIDTH 7 0
BBX 7 12 0 -2
BITMAP
00
3c
66
60
30
1c
06
06
66
3c
00
00
ENDCHAR
STARTCHAR T
ENCODING 179
SWIDTH 42 0
DWIDTH 7 0
BBX 7 12 0 -2
BITMAP
00
7e
18
18
18
18
18
18
18
18
00
00
ENDCHAR
STARTCHAR U
ENCODING 180
SWIDTH 42 0
DWIDTH 7 0
BBX 7 12 0 -2
BITMAP
00
66
66
66
66
66
66
66
66
3c
00
00
ENDCHAR
STARTCHAR V
ENCODING 181
SWIDTH 42 0
DWIDTH 7 0
BBX 7 12 0 -2
BITMAP
00
66
66
66
3c
3c
3c
18
18
18
00
00
ENDCHAR
STARTCHAR W
ENCODING 182
SWIDTH 42 0
DWIDTH 7 0
BBX 7 12 0 -2
BITMAP
00
c2
c2
c2
da
7e
7e
7e
3c
3c
00
00
ENDCHAR
STARTCHAR X
ENCODING 183
SWIDTH 42 0
DWIDTH 7 0
BBX 7 12 0 -2
BITMAP
00
66
66
3c
3c
18
3c
3c
66
66
00
00
ENDCHAR
STARTCHAR Y
ENCODING 184
SWIDTH 42 0
DWIDTH 7 0
BBX 7 12 0 -2
BITMAP
00
66
66
66
3c
18
18
18
18
18
00
00
ENDCHAR
STARTCHAR Z
ENCODING 185
SWIDTH 42 0
DWIDTH 7 0
BBX 7 12 0 -2
BITMAP
00
7e
06
06
0c
18
30
60
60
7e
00
00
ENDCHAR
STARTCHAR AE
ENCODING 186
SWIDTH 42 0
DWIDTH 7 0
BBX 7 12 0 -2
BITMAP
00
1e
38
38
78
7e
78
d8
d8
de
00
00
ENDCHAR
STARTCHAR Ooblique
ENCODING 187
SWIDTH 42 0
DWIDTH 7 0
BBX 7 12 0 -2
BITMAP
00
3c
66
66
6e
7e
7e
76
66
66
3c
00
ENDCHAR
STARTCHAR Aring
ENCODING 188
SWIDTH 42 0
DWIDTH 7 0
BBX 7 12 0 -2
BITMAP
3c
3c
00
18
3c
3c
66
7e
66
66
00
00
ENDCHAR
STARTCHAR Ccedilla
ENCODING 189
SWIDTH 42 0
DWIDTH 7 0
BBX 7 12 0 -2
BITMAP
00
3c
66
66
60
60
60
66
66
3c
18
78
ENDCHAR
STARTCHAR semicolon
ENCODING 190
SWIDTH 42 0
DWIDTH 7 0
BBX 7 12 0 -2
BITMAP
00
00
00
1c
1c
00
00
00
1c
1c
0c
38
ENDCHAR
STARTCHAR asterisk
ENCODING 191
SWIDTH 42 0
DWIDTH 7 0
BBX 7 12 0 -2
BITMAP
00
18
7e
3c
3c
7e
18
00
00
00
00
00
ENDCHAR
STARTCHAR c0
ENCODING 192
SWIDTH 42 0
DWIDTH 7 0
BBX 7 12 0 -2
BITMAP
00
00
00
00
00
00
00
00
00
00
00
00
ENDCHAR
STARTCHAR c1
ENCODING 193
SWIDTH 42 0
DWIDTH 7 0
BBX 7 12 0 -2
BITMAP
00
00
00
00
00
00
00
00
00
00
00
00
ENDCHAR
STARTCHAR c2
ENCODING 194
SWIDTH 42 0
DWIDTH 7 0
BBX 7 12 0 -2
BITMAP
00
00
00
00
00
00
00
00
00
00
00
00
ENDCHAR
STARTCHAR c3
ENCODING 195
SWIDTH 42 0
DWIDTH 7 0
BBX 7 12 0 -2
BITMAP
00
00
00
00
00
00
00
00
00
00
00
00
ENDCHAR
STARTCHAR c4
ENCODING 196
SWIDTH 42 0
DWIDTH 7 0
BBX 7 12 0 -2
BITMAP
00
00
00
00
00
00
00
00
00
00
00
00
ENDCHAR
STARTCHAR c5
ENCODING 197
SWIDTH 42 0
DWIDTH 7 0
BBX 7 12 0 -2
BITMAP
00
00
00
00
00
00
00
00
00
00
00
00
ENDCHAR
STARTCHAR c6
ENCODING 198
SWIDTH 42 0
DWIDTH 7 0
BBX 7 12 0 -2
BITMAP
00
00
00
00
00
00
00
00
00
00
00
00
ENDCHAR
STARTCHAR c7
ENCODING 199
SWIDTH 42 0
DWIDTH 7 0
BBX 7 12 0 -2
BITMAP
00
00
00
00
00
00
00
00
00
00
00
00
ENDCHAR
STARTCHAR c8
ENCODING 200
SWIDTH 42 0
DWIDTH 7 0
BBX 7 12 0 -2
BITMAP
00
00
00
00
00
00
00
00
00
00
00
00
ENDCHAR
STARTCHAR c9
ENCODING 201
SWIDTH 42 0
DWIDTH 7 0
BBX 7 12 0 -2
BITMAP
00
00
00
00
00
00
00
00
00
00
00
00
ENDCHAR
STARTCHAR ca
ENCODING 202
SWIDTH 42 0
DWIDTH 7 0
BBX 7 12 0 -2
BITMAP
00
00
00
00
00
00
00
00
00
00
00
00
ENDCHAR
STARTCHAR cb
ENCODING 203
SWIDTH 42 0
DWIDTH 7 0
BBX 7 12 0 -2
BITMAP
00
00
00
00
00
00
00
00
00
00
00
00
ENDCHAR
STARTCHAR cc
ENCODING 204
SWIDTH 42 0
DWIDTH 7 0
BBX 7 12 0 -2
BITMAP
00
00
00
00
00
00
00
00
00
00
00
00
ENDCHAR
STARTCHAR cd
ENCODING 205
SWIDTH 42 0
DWIDTH 7 0
BBX 7 12 0 -2
BITMAP
00
00
00
00
00
00
00
00
00
00
00
00
ENDCHAR
STARTCHAR ce
ENCODING 206
SWIDTH 42 0
DWIDTH 7 0
BBX 7 12 0 -2
BITMAP
00
00
00
00
00
00
00
00
00
00
00
00
ENDCHAR
STARTCHAR cf
ENCODING 207
SWIDTH 42 0
DWIDTH 7 0
BBX 7 12 0 -2
BITMAP
00
00
00
00
00
00
00
00
00
00
00
00
ENDCHAR
STARTCHAR copyright
ENCODING 208
SWIDTH 42 0
DWIDTH 7 0
BBX 7 12 0 -2
BITMAP
00
38
44
54
64
54
44
38
00
00
00
00
ENDCHAR
STARTCHAR registered
ENCODING 209
SWIDTH 42 0
DWIDTH 7 0
BBX 7 12 0 -2
BITMAP
00
38
44
74
74
6c
44
38
00
00
00
00
ENDCHAR
STARTCHAR boxA
ENCODING 210
SWIDTH 42 0
DWIDTH 7 0
BBX 7 12 0 -2
BITMAP
20
50
88
88
f8
88
88
00
fe
82
82
fe
ENDCHAR
STARTCHAR insert
ENCODING 211
SWIDTH 42 0
DWIDTH 7 0
BBX 7 12 0 -2
BITMAP
00
00
00
10
38
7c
ee
c6
82
00
00
00
ENDCHAR
STARTCHAR boxB
ENCODING 212
SWIDTH 42 0
DWIDTH 7 0
BBX 7 12 0 -2
BITMAP
1c
12
12
1c
12
12
1c
00
fe
82
82
fe
ENDCHAR
STARTCHAR box6
ENCODING 213
SWIDTH 42 0
DWIDTH 7 0
BBX 7 12 0 -2
BITMAP
fe
82
82
92
a2
b2
aa
92
82
82
fe
00
ENDCHAR
STARTCHAR plusminus
ENCODING 214
SWIDTH 42 0
DWIDTH 7 0
BBX 7 12 0 -2
BITMAP
00
00
00
18
18
7e
18
18
00
7e
00
00
ENDCHAR
STARTCHAR ETH
ENCODING 215
SWIDTH 42 0
DWIDTH 7 0
BBX 7 12 0 -2
BITMAP
00
78
6c
66
66
fe
66
66
6c
78
00
00
ENDCHAR
STARTCHAR rightarrow
ENCODING 216
SWIDTH 42 0
DWIDTH 7 0
BBX 7 12 0 -2
BITMAP
00
00
00
08
0c
fe
0c
08
00
00
00
00
ENDCHAR
STARTCHAR THORN
ENCODING 217
SWIDTH 42 0
DWIDTH 7 0
BBX 7 12 0 -2
BITMAP
00
60
60
7c
66
66
66
7c
60
60
00
00
ENDCHAR
STARTCHAR upshift
ENCODING 218
SWIDTH 42 0
DWIDTH 7 0
BBX 7 12 0 -2
BITMAP
10
28
44
82
ee
28
28
28
28
28
38
00
ENDCHAR
STARTCHAR human
ENCODING 219
SWIDTH 42 0
DWIDTH 7 0
BBX 7 12 0 -2
BITMAP
00
38
28
38
10
fe
10
10
28
44
82
00
ENDCHAR
STARTCHAR underB
ENCODING 220
SWIDTH 42 0
DWIDTH 7 0
BBX 7 12 0 -2
BITMAP
78
24
24
38
24
24
78
00
fe
00
00
00
ENDCHAR
STARTCHAR downshift
ENCODING 221
SWIDTH 42 0
DWIDTH 7 0
BBX 7 12 0 -2
BITMAP
38
28
28
28
28
28
ee
82
44
28
10
00
ENDCHAR
STARTCHAR boxquestion
ENCODING 222
SWIDTH 42 0
DWIDTH 7 0
BBX 7 12 0 -2
BITMAP
fe
82
92
aa
8a
92
92
82
92
82
fe
00
ENDCHAR
STARTCHAR boxsolid
ENCODING 223
SWIDTH 42 0
DWIDTH 7 0
BBX 7 12 0 -2
BITMAP
fe
fe
fe
fe
fe
fe
fe
fe
fe
fe
fe
00
ENDCHAR
STARTCHAR e0
ENCODING 224
SWIDTH 42 0
DWIDTH 7 0
BBX 7 12 0 -2
BITMAP
00
00
00
00
00
00
00
00
00
00
00
00
ENDCHAR
STARTCHAR e1
ENCODING 225
SWIDTH 42 0
DWIDTH 7 0
BBX 7 12 0 -2
BITMAP
00
00
00
00
00
00
00
00
00
00
00
00
ENDCHAR
STARTCHAR e2
ENCODING 226
SWIDTH 42 0
DWIDTH 7 0
BBX 7 12 0 -2
BITMAP
00
00
00
00
00
00
00
00
00
00
00
00
ENDCHAR
STARTCHAR e3
ENCODING 227
SWIDTH 42 0
DWIDTH 7 0
BBX 7 12 0 -2
BITMAP
00
00
00
00
00
00
00
00
00
00
00
00
ENDCHAR
STARTCHAR e4
ENCODING 228
SWIDTH 42 0
DWIDTH 7 0
BBX 7 12 0 -2
BITMAP
00
00
00
00
00
00
00
00
00
00
00
00
ENDCHAR
STARTCHAR e5
ENCODING 229
SWIDTH 42 0
DWIDTH 7 0
BBX 7 12 0 -2
BITMAP
00
00
00
00
00
00
00
00
00
00
00
00
ENDCHAR
STARTCHAR e6
ENCODING 230
SWIDTH 42 0
DWIDTH 7 0
BBX 7 12 0 -2
BITMAP
00
00
00
00
00
00
00
00
00
00
00
00
ENDCHAR
STARTCHAR e7
ENCODING 231
SWIDTH 42 0
DWIDTH 7 0
BBX 7 12 0 -2
BITMAP
00
00
00
00
00
00
00
00
00
00
00
00
ENDCHAR
STARTCHAR e8
ENCODING 232
SWIDTH 42 0
DWIDTH 7 0
BBX 7 12 0 -2
BITMAP
00
00
00
00
00
00
00
00
00
00
00
00
ENDCHAR
STARTCHAR e9
ENCODING 233
SWIDTH 42 0
DWIDTH 7 0
BBX 7 12 0 -2
BITMAP
00
00
00
00
00
00
00
00
00
00
00
00
ENDCHAR
STARTCHAR ea
ENCODING 234
SWIDTH 42 0
DWIDTH 7 0
BBX 7 12 0 -2
BITMAP
00
00
00
00
00
00
00
00
00
00
00
00
ENDCHAR
STARTCHAR eb
ENCODING 235
SWIDTH 42 0
DWIDTH 7 0
BBX 7 12 0 -2
BITMAP
00
00
00
00
00
00
00
00
00
00
00
00
ENDCHAR
STARTCHAR ec
ENCODING 236
SWIDTH 42 0
DWIDTH 7 0
BBX 7 12 0 -2
BITMAP
00
00
00
00
00
00
00
00
00
00
00
00
ENDCHAR
STARTCHAR ed
ENCODING 237
SWIDTH 42 0
DWIDTH 7 0
BBX 7 12 0 -2
BITMAP
00
00
00
00
00
00
00
00
00
00
00
00
ENDCHAR
STARTCHAR ee
ENCODING 238
SWIDTH 42 0
DWIDTH 7 0
BBX 7 12 0 -2
BITMAP
00
00
00
00
00
00
00
00
00
00
00
00
ENDCHAR
STARTCHAR ef
ENCODING 239
SWIDTH 42 0
DWIDTH 7 0
BBX 7 12 0 -2
BITMAP
00
00
00
00
00
00
00
00
00
00
00
00
ENDCHAR
STARTCHAR badcommhi
ENCODING 240
SWIDTH 42 0
DWIDTH 7 0
BBX 7 12 0 -2
BITMAP
80
80
40
40
20
fe
10
10
08
08
04
04
ENDCHAR
STARTCHAR commhi
ENCODING 241
SWIDTH 42 0
DWIDTH 7 0
BBX 7 12 0 -2
BITMAP
00
00
00
00
00
fe
00
00
00
00
00
00
ENDCHAR
STARTCHAR commjag
ENCODING 242
SWIDTH 42 0
DWIDTH 7 0
BBX 7 12 0 -2
BITMAP
00
00
00
00
00
fc
08
10
20
7e
00
00
ENDCHAR
STARTCHAR commlo
ENCODING 243
SWIDTH 42 0
DWIDTH 7 0
BBX 7 12 0 -2
BITMAP
00
00
00
00
00
00
00
00
00
fe
00
00
ENDCHAR
STARTCHAR clockleft
ENCODING 244
SWIDTH 42 0
DWIDTH 7 0
BBX 7 12 0 -2
BITMAP
02
10
00
40
00
02
82
02
02
42
02
10
ENDCHAR
STARTCHAR clockright
ENCODING 245
SWIDTH 42 0
DWIDTH 7 0
BBX 7 12 0 -2
BITMAP
20
00
28
40
80
04
00
00
08
00
20
00
ENDCHAR
STARTCHAR lock
ENCODING 246
SWIDTH 42 0
DWIDTH 7 0
BBX 7 12 0 -2
BITMAP
82
c6
ee
7c
38
38
38
7c
ee
c6
82
00
ENDCHAR
STARTCHAR eth
ENCODING 247
SWIDTH 42 0
DWIDTH 7 0
BBX 7 12 0 -2
BITMAP
3c
18
3c
06
3e
6e
66
66
6e
3e
00
00
ENDCHAR
STARTCHAR leftarrow
ENCODING 248
SWIDTH 42 0
DWIDTH 7 0
BBX 7 12 0 -2
BITMAP
00
00
00
20
60
fe
60
20
00
00
00
00
ENDCHAR
STARTCHAR thorn
ENCODING 249
SWIDTH 42 0
DWIDTH 7 0
BBX 7 12 0 -2
BITMAP
00
60
7c
76
66
66
66
76
7c
60
00
00
ENDCHAR
STARTCHAR keyleft
ENCODING 250
SWIDTH 42 0
DWIDTH 7 0
BBX 7 12 0 -2
BITMAP
00
00
38
44
46
44
38
00
00
00
00
00
ENDCHAR
STARTCHAR keyright
ENCODING 251
SWIDTH 42 0
DWIDTH 7 0
BBX 7 12 0 -2
BITMAP
00
00
00
00
fe
36
36
06
00
00
00
00
ENDCHAR
STARTCHAR box4
ENCODING 252
SWIDTH 42 0
DWIDTH 7 0
BBX 7 12 0 -2
BITMAP
fe
82
8a
9a
aa
ba
8a
8a
82
82
fe
00
ENDCHAR
STARTCHAR underA
ENCODING 253
SWIDTH 42 0
DWIDTH 7 0
BBX 7 12 0 -2
BITMAP
10
28
44
44
7c
44
44
00
fe
00
00
00
ENDCHAR
STARTCHAR magcard
ENCODING 254
SWIDTH 42 0
DWIDTH 7 0
BBX 7 12 0 -2
BITMAP
00
00
fe
82
82
82
fe
82
fe
00
00
00
ENDCHAR
STARTCHAR boxhuman
ENCODING 255
SWIDTH 42 0
DWIDTH 7 0
BBX 7 12 0 -2
BITMAP
fe
82
ba
aa
ba
92
fe
92
92
aa
c6
fe
ENDCHAR
STARTCHAR apl_space
ENCODING 272
SWIDTH 42 0
DWIDTH 7 0
BBX 7 12 0 -2
BITMAP
00
00
00
00
00
00
00
00
00
00
00
00
ENDCHAR
STARTCHAR apl_bracketright
ENCODING 316
SWIDTH 42 0
DWIDTH 7 0
BBX 7 12 0 -2
BITMAP
7c
0c
0c
0c
0c
0c
0c
0c
0c
0c
7c
00
ENDCHAR
STARTCHAR apl_bracketleft
ENCODING 328
SWIDTH 42 0
DWIDTH 7 0
BBX 7 12 0 -2
BITMAP
3e
30
30
30
30
30
30
30
30
30
3e
00
ENDCHAR
STARTCHAR apl_stile
ENCODING 347
SWIDTH 42 0
DWIDTH 7 0
BBX 7 12 0 -2
BITMAP
18
18
18
18
18
18
18
18
18
18
18
18
ENDCHAR
STARTCHAR apl_uparrow
ENCODING 364
SWIDTH 42 0
DWIDTH 7 0
BBX 7 12 0 -2
BITMAP
00
00
18
3c
7f
18
18
18
18
18
00
00
ENDCHAR
STARTCHAR apl_downarrow
ENCODING 365
SWIDTH 42 0
DWIDTH 7 0
BBX 7 12 0 -2
BITMAP
00
00
18
18
18
18
18
7f
3c
18
00
00
ENDCHAR
STARTCHAR apl_2vertical
ENCODING 384
SWIDTH 42 0
DWIDTH 7 0
BBX 7 12 0 -2
BITMAP
66
66
66
66
66
66
66
66
66
66
66
66
ENDCHAR
STARTCHAR apl_2horizontal
ENCODING 385
SWIDTH 42 0
DWIDTH 7 0
BBX 7 12 0 -2
BITMAP
00
fe
00
00
00
00
00
00
00
00
fe
00
ENDCHAR
STARTCHAR apl_leftvbar
ENCODING 386
SWIDTH 42 0
DWIDTH 7 0
BBX 7 12 0 -2
BITMAP
60
60
60
60
60
60
60
60
60
60
60
60
ENDCHAR
STARTCHAR apl_rightvbar
ENCODING 387
SWIDTH 42 0
DWIDTH 7 0
BBX 7 12 0 -2
BITMAP
06
06
06
06
06
06
06
06
06
06
06
06
ENDCHAR
STARTCHAR apl_midvbar
ENCODING 388
SWIDTH 42 0
DWIDTH 7 0
BBX 7 12 0 -2
BITMAP
18
18
18
18
18
18
18
18
18
18
18
18
ENDCHAR
STARTCHAR apl_leftsolid
ENCODING 393
SWIDTH 42 0
DWIDTH 7 0
BBX 7 12 0 -2
BITMAP
f8
f8
f8
f8
f8
f8
f8
f8
f8
f8
f8
f8
ENDCHAR
STARTCHAR apl_rightsolid
ENCODING 394
SWIDTH 42 0
DWIDTH 7 0
BBX 7 12 0 -2
BITMAP
1e
1e
1e
1e
1e
1e
1e
1e
1e
1e
1e
1e
ENDCHAR
STARTCHAR apl_topsolid
ENCODING 395
SWIDTH 42 0
DWIDTH 7 0
BBX 7 12 0 -2
BITMAP
fe
fe
fe
fe
fe
fe
00
00
00
00
00
00
ENDCHAR
STARTCHAR apl_bottomsolid
ENCODING 396
SWIDTH 42 0
DWIDTH 7 0
BBX 7 12 0 -2
BITMAP
00
00
00
00
00
00
fe
fe
fe
fe
fe
fe
ENDCHAR
STARTCHAR apl_solid
ENCODING 397
SWIDTH 42 0
DWIDTH 7 0
BBX 7 12 0 -2
BITMAP
fe
fe
fe
fe
fe
fe
fe
fe
fe
fe
fe
fe
ENDCHAR
STARTCHAR apl_midhbar
ENCODING 402
SWIDTH 42 0
DWIDTH 7 0
BBX 7 12 0 -2
BITMAP
00
00
00
00
00
fe
00
00
00
00
00
00
ENDCHAR
STARTCHAR apl_lowerleft
ENCODING 419
SWIDTH 42 0
DWIDTH 7 0
BBX 7 12 0 -2
BITMAP
18
18
18
18
18
1e
00
00
00
00
00
00
ENDCHAR
STARTCHAR apl_upperleft
ENCODING 420
SWIDTH 42 0
DWIDTH 7 0
BBX 7 12 0 -2
BITMAP
00
00
00
00
00
1e
18
18
18
18
18
18
ENDCHAR
STARTCHAR apl_leftjoin
ENCODING 421
SWIDTH 42 0
DWIDTH 7 0
BBX 7 12 0 -2
BITMAP
18
18
18
18
18
1e
18
18
18
18
18
18
ENDCHAR
STARTCHAR apl_bottomjoin
ENCODING 422
SWIDTH 42 0
DWIDTH 7 0
BBX 7 12 0 -2
BITMAP
18
18
18
18
18
fe
00
00
00
00
00
00
ENDCHAR
STARTCHAR apl_intersect
ENCODING 427
SWIDTH 42 0
DWIDTH 7 0
BBX 7 12 0 -2
BITMAP
18
18
18
18
18
fe
18
18
18
18
18
18
ENDCHAR
STARTCHAR apl_lowerright
ENCODING 428
SWIDTH 42 0
DWIDTH 7 0
BBX 7 12 0 -2
BITMAP
18
18
18
18
18
f8
00
00
00
00
00
00
ENDCHAR
STARTCHAR apl_upperright
ENCODING 429
SWIDTH 42 0
DWIDTH 7 0
BBX 7 12 0 -2
BITMAP
00
00
00
00
00
f8
18
18
18
18
18
18
ENDCHAR
STARTCHAR apl_rightjoin
ENCODING 430
SWIDTH 42 0
DWIDTH 7 0
BBX 7 12 0 -2
BITMAP
18
18
18
18
18
f8
18
18
18
18
18
18
ENDCHAR
STARTCHAR apl_topjoin
ENCODING 431
SWIDTH 42 0
DWIDTH 7 0
BBX 7 12 0 -2
BITMAP
00
00
00
00
00
fe
18
18
18
18
18
18
ENDCHAR
STARTCHAR 200
ENCODING 512
SWIDTH 42 0
DWIDTH 7 0
BBX 7 12 0 -2
BITMAP
3c
3c
3c
3c
3c
3c
3c
3c
3c
3c
3c
3c
ENDCHAR
STARTCHAR 201
ENCODING 513
SWIDTH 42 0
DWIDTH 7 0
BBX 7 12 0 -2
BITMAP
00
00
00
18
3c
7e
3c
18
00
00
00
00
ENDCHAR
STARTCHAR 202
ENCODING 514
SWIDTH 42 0
DWIDTH 7 0
BBX 7 12 0 -2
BITMAP
aa
54
aa
54
aa
54
aa
54
aa
54
aa
54
ENDCHAR
STARTCHAR 203
ENCODING 515
SWIDTH 42 0
DWIDTH 7 0
BBX 7 12 0 -2
BITMAP
00
78
78
78
78
78
00
1e
0c
0c
0c
0c
ENDCHAR
STARTCHAR 204
ENCODING 516
SWIDTH 42 0
DWIDTH 7 0
BBX 7 12 0 -2
BITMAP
00
78
60
70
60
60
00
1e
18
1c
18
18
ENDCHAR
STARTCHAR 205
ENCODING 517
SWIDTH 42 0
DWIDTH 7 0
BBX 7 12 0 -2
BITMAP
00
38
60
60
60
38
00
1c
1e
1c
1e
1e
ENDCHAR
STARTCHAR 206
ENCODING 518
SWIDTH 42 0
DWIDTH 7 0
BBX 7 12 0 -2
BITMAP
00
60
60
60
60
78
00
1e
18
1c
18
18
ENDCHAR
STARTCHAR 207
ENCODING 519
SWIDTH 42 0
DWIDTH 7 0
BBX 7 12 0 -2
BITMAP
00
38
6c
6c
38
00
00
00
00
00
00
00
ENDCHAR
STARTCHAR 208
ENCODING 520
SWIDTH 42 0
DWIDTH 7 0
BBX 7 12 0 -2
BITMAP
00
00
00
18
18
7e
18
18
00
7e
00
00
ENDCHAR
STARTCHAR 209
ENCODING 521
SWIDTH 42 0
DWIDTH 7 0
BBX 7 12 0 -2
BITMAP
00
6c
7c
7c
6c
6c
00
18
18
18
18
1e
ENDCHAR
STARTCHAR 20a
ENCODING 522
SWIDTH 42 0
DWIDTH 7 0
BBX 7 12 0 -2
BITMAP
00
78
78
78
30
30
00
1e
0c
0c
0c
0c
ENDCHAR
STARTCHAR 20b
ENCODING 523
SWIDTH 42 0
DWIDTH 7 0
BBX 7 12 0 -2
BITMAP
18
18
18
18
18
f8
00
00
00
00
00
00
ENDCHAR
STARTCHAR 20c
ENCODING 524
SWIDTH 42 0
DWIDTH 7 0
BBX 7 12 0 -2
BITMAP
00
00
00
00
00
f8
18
18
18
18
18
18
ENDCHAR
STARTCHAR 20d
ENCODING 525
SWIDTH 42 0
DWIDTH 7 0
BBX 7 12 0 -2
BITMAP
00
00
00
00
00
1e
18
18
18
18
18
18
ENDCHAR
STARTCHAR 20e
ENCODING 526
SWIDTH 42 0
DWIDTH 7 0
BBX 7 12 0 -2
BITMAP
18
18
18
18
18
1e
00
00
00
00
00
00
ENDCHAR
STARTCHAR 20f
ENCODING 527
SWIDTH 42 0
DWIDTH 7 0
BBX 7 12 0 -2
BITMAP
18
18
18
18
18
fe
18
18
18
18
18
18
ENDCHAR
STARTCHAR 210
ENCODING 528
SWIDTH 42 0
DWIDTH 7 0
BBX 7 12 0 -2
BITMAP
00
fe
00
00
00
00
00
00
00
00
00
00
ENDCHAR
STARTCHAR 211
ENCODING 529
SWIDTH 42 0
DWIDTH 7 0
BBX 7 12 0 -2
BITMAP
00
00
00
fe
00
00
00
00
00
00
00
00
ENDCHAR
STARTCHAR 212
ENCODING 530
SWIDTH 42 0
DWIDTH 7 0
BBX 7 12 0 -2
BITMAP
00
00
00
00
00
fe
00
00
00
00
00
00
ENDCHAR
STARTCHAR 213
ENCODING 531
SWIDTH 42 0
DWIDTH 7 0
BBX 7 12 0 -2
BITMAP
00
00
00
00
00
00
00
fe
00
00
00
00
ENDCHAR
STARTCHAR 214
ENCODING 532
SWIDTH 42 0
DWIDTH 7 0
BBX 7 12 0 -2
BITMAP
00
00
00
00
00
00
00
00
00
fe
00
00
ENDCHAR
STARTCHAR 215
ENCODING 533
SWIDTH 42 0
DWIDTH 7 0
BBX 7 12 0 -2
BITMAP
18
18
18
18
18
1e
18
18
18
18
18
18
ENDCHAR
STARTCHAR 216
ENCODING 534
SWIDTH 42 0
DWIDTH 7 0
BBX 7 12 0 -2
BITMAP
18
18
18
18
18
f8
18
18
18
18
18
18
ENDCHAR
STARTCHAR 217
ENCODING 535
SWIDTH 42 0
DWIDTH 7 0
BBX 7 12 0 -2
BITMAP
18
18
18
18
18
fe
00
00
00
00
00
00
ENDCHAR
STARTCHAR 218
ENCODING 536
SWIDTH 42 0
DWIDTH 7 0
BBX 7 12 0 -2
BITMAP
00
00
00
00
00
fe
18
18
18
18
18
18
ENDCHAR
STARTCHAR 219
ENCODING 537
SWIDTH 42 0
DWIDTH 7 0
BBX 7 12 0 -2
BITMAP
18
18
18
18
18
18
18
18
18
18
18
18
ENDCHAR
STARTCHAR 21a
ENCODING 538
SWIDTH 42 0
DWIDTH 7 0
BBX 7 12 0 -2
BITMAP
00
00
0c
18
30
60
30
18
0c
00
7e
00
ENDCHAR
STARTCHAR 21b
ENCODING 539
SWIDTH 42 0
DWIDTH 7 0
BBX 7 12 0 -2
BITMAP
00
00
30
18
0c
06
0c
18
30
00
7e
00
ENDCHAR
STARTCHAR 21c
ENCODING 540
SWIDTH 42 0
DWIDTH 7 0
BBX 7 12 0 -2
BITMAP
00
00
00
00
7e
3c
3c
3c
3c
6c
00
00
ENDCHAR
STARTCHAR 21d
ENCODING 541
SWIDTH 42 0
DWIDTH 7 0
BBX 7 12 0 -2
BITMAP
00
00
06
0c
7e
18
7e
30
60
00
00
00
ENDCHAR
STARTCHAR 21e
ENCODING 542
SWIDTH 42 0
DWIDTH 7 0
BBX 7 12 0 -2
BITMAP
00
1c
36
30
30
78
30
30
36
7c
00
00
ENDCHAR
STARTCHAR 21f
ENCODING 543
SWIDTH 42 0
DWIDTH 7 0
BBX 7 12 0 -2
BITMAP
00
00
00
00
00
38
38
00
00
00
00
00
ENDCHAR
ENDFONT
