STARTFONT 2.1
COMMENT "8-point 3270 font"
COMMENT "Uses nonstandard ordering:"
COMMENT " Page 0: EBCDIC US-International set, CG order"
COMMENT " Page 1: EBCDIC APL/APL2 set, CG order (incomplete)"
COMMENT " Page 2: (first 16 characters only) DEC line-drawing characters from"
COMMENT "  fixed-width X fonts"
COMMENT ""
COMMENT "Copyright (c) 1994-2009, Paul Mattes."
COMMENT "Copyright (c) 1989, Georgia Tech Research Corporation (GTRC),"
COMMENT " Atlanta, GA 30332."
COMMENT "All rights reserved."
COMMENT ""
COMMENT "Redistribution and use in source and binary forms, with or"
COMMENT "without modification, are permitted provided that the following"
COMMENT "conditions are met:"
COMMENT "    * Redistributions of source code must retain the above"
COMMENT "      copyright notice, this list of conditions and the following"
COMMENT "      disclaimer."
COMMENT "    * Redistributions in binary form must reproduce the above"
COMMENT "      copyright notice, this list of conditions and the following"
COMMENT "      disclaimer in the documentation and/or other materials"
COMMENT "      provided with the distribution."
COMMENT "    * Neither the names of Paul Mattes, GTRC nor their"
COMMENT "      contributors may be used to endorse or promote products"
COMMENT "      derived from this software without specific prior written"
COMMENT "      permission."
COMMENT ""
COMMENT "THIS SOFTWARE IS PROVIDED BY PAUL MATTES AND GTRC 'AS IS' AND"
COMMENT "ANY EXPRESS OR IMPLIED WARRANTIES, INCLUDING, BUT NOT LIMITED"
COMMENT "TO, THE IMPLIED WARRANTIES OF MERCHANTABILITY AND FITNESS FOR"
COMMENT "A PARTICULAR PURPOSE ARE DISCLAIMED. IN NO EVENT SHALL PAUL"
COMMENT "MATTES OR GTRC BE LIABLE FOR ANY DIRECT, INDIRECT, INCIDENTAL,"
COMMENT "SPECIAL, EXEMPLARY, OR CONSEQUENTIAL DAMAGES (INCLUDING, BUT"
COMMENT "NOT LIMITED TO, PROCUREMENT OF SUBSTITUTE GOODS OR SERVICES;"
COMMENT "LOSS OF USE, DATA, OR PROFITS; OR BUSINESS INTERRUPTION) HOWEVER"
COMMENT "CAUSED AND ON ANY THEORY OF LIABILITY, WHETHER IN CONTRACT,"
COMMENT "STRICT LIABILITY, OR TORT (INCLUDING NEGLIGENCE OR OTHERWISE)"
COMMENT "ARISING IN ANY WAY OUT OF THE USE OF THIS SOFTWARE, EVEN IF"
COMMENT "ADVISED OF THE POSSIBILITY OF SUCH DAMAGE."
FONT 3270gt8
SIZE 8 72 72
FONTBOUNDINGBOX 5 8 0 -2
STARTPROPERTIES 27
FOUNDRY "GaTech"
FAMILY_NAME "3270"
WEIGHT_NAME "Medium"
SLANT "R"
SETWIDTH_NAME "Normal"
ADD_STYLE_NAME ""
PIXEL_SIZE 8
POINT_SIZE 80
RESOLUTION_X 72
RESOLUTION_Y 72
SPACING "C"
AVERAGE_WIDTH 50
CHARSET_REGISTRY "3270cg"
CHARSET_ENCODING "1"
MIN_SPACE 5
NORM_SPACE 5
MAX_SPACE 5
END_SPACE 5
AVG_CAPITAL_WIDTH 50
AVG_LOWERCASE_WIDTH 50
CAP_HEIGHT 6
X_HEIGHT 4
RELATIVE_WEIGHT 50
DESTINATION "Video Text"
FONT_ASCENT 6
FONT_DESCENT 2
DEFAULT_CHAR 514
ENDPROPERTIES
CHARS 312
STARTCHAR null
ENCODING 0
SWIDTH 563 0
DWIDTH 5 0
BBX 5 8 0 -2
BITMAP
00
00
00
00
00
00
00
00
ENDCHAR
STARTCHAR nobreakspace
ENCODING 1
SWIDTH 563 0
DWIDTH 5 0
BBX 5 8 0 -2
BITMAP
00
00
00
00
00
00
00
00
ENDCHAR
STARTCHAR euro
ENCODING 2
SWIDTH 563 0
DWIDTH 5 0
BBX 5 8 0 -2
BITMAP
30
48
e0
40
e0
48
30
00
ENDCHAR
STARTCHAR cr
ENCODING 3
SWIDTH 563 0
DWIDTH 5 0
BBX 5 8 0 -2
BITMAP
00
00
00
00
00
00
00
00
ENDCHAR
STARTCHAR nl
ENCODING 4
SWIDTH 563 0
DWIDTH 5 0
BBX 5 8 0 -2
BITMAP
00
00
00
00
00
00
00
00
ENDCHAR
STARTCHAR em
ENCODING 5
SWIDTH 563 0
DWIDTH 5 0
BBX 5 8 0 -2
BITMAP
00
00
00
00
00
00
00
00
ENDCHAR
STARTCHAR eightones
ENCODING 6
SWIDTH 563 0
DWIDTH 5 0
BBX 5 8 0 -2
BITMAP
00
20
70
f8
70
20
00
00
ENDCHAR
STARTCHAR hyphen
ENCODING 7
SWIDTH 563 0
DWIDTH 5 0
BBX 5 8 0 -2
BITMAP
00
00
00
70
00
00
00
00
ENDCHAR
STARTCHAR greater
ENCODING 8
SWIDTH 563 0
DWIDTH 5 0
BBX 5 8 0 -2
BITMAP
00
40
20
10
20
40
00
00
ENDCHAR
STARTCHAR less
ENCODING 9
SWIDTH 563 0
DWIDTH 5 0
BBX 5 8 0 -2
BITMAP
00
10
20
40
20
10
00
00
ENDCHAR
STARTCHAR bracketleft
ENCODING 10
SWIDTH 563 0
DWIDTH 5 0
BBX 5 8 0 -2
BITMAP
30
20
20
20
20
20
30
00
ENDCHAR
STARTCHAR bracketright
ENCODING 11
SWIDTH 563 0
DWIDTH 5 0
BBX 5 8 0 -2
BITMAP
60
20
20
20
20
20
60
00
ENDCHAR
STARTCHAR parenright
ENCODING 12
SWIDTH 563 0
DWIDTH 5 0
BBX 5 8 0 -2
BITMAP
40
20
20
20
20
20
40
00
ENDCHAR
STARTCHAR parenleft
ENCODING 13
SWIDTH 563 0
DWIDTH 5 0
BBX 5 8 0 -2
BITMAP
10
20
20
20
20
20
10
00
ENDCHAR
STARTCHAR braceright
ENCODING 14
SWIDTH 563 0
DWIDTH 5 0
BBX 5 8 0 -2
BITMAP
40
20
20
10
20
20
40
00
ENDCHAR
STARTCHAR braceleft
ENCODING 15
SWIDTH 563 0
DWIDTH 5 0
BBX 5 8 0 -2
BITMAP
10
20
20
40
20
20
10
00
ENDCHAR
STARTCHAR space
ENCODING 16
SWIDTH 563 0
DWIDTH 5 0
BBX 5 8 0 -2
BITMAP
00
00
00
00
00
00
00
00
ENDCHAR
STARTCHAR equal
ENCODING 17
SWIDTH 563 0
DWIDTH 5 0
BBX 5 8 0 -2
BITMAP
00
00
70
00
70
00
00
00
ENDCHAR
STARTCHAR apostrophe
ENCODING 18
SWIDTH 563 0
DWIDTH 5 0
BBX 5 8 0 -2
BITMAP
20
20
00
00
00
00
00
00
ENDCHAR
STARTCHAR quotedbl
ENCODING 19
SWIDTH 563 0
DWIDTH 5 0
BBX 5 8 0 -2
BITMAP
50
50
00
00
00
00
00
00
ENDCHAR
STARTCHAR slash
ENCODING 20
SWIDTH 563 0
DWIDTH 5 0
BBX 5 8 0 -2
BITMAP
00
08
10
20
40
80
00
00
ENDCHAR
STARTCHAR backslash
ENCODING 21
SWIDTH 563 0
DWIDTH 5 0
BBX 5 8 0 -2
BITMAP
00
80
40
20
10
08
00
00
ENDCHAR
STARTCHAR bar
ENCODING 22
SWIDTH 563 0
DWIDTH 5 0
BBX 5 8 0 -2
BITMAP
20
20
20
20
20
20
20
00
ENDCHAR
STARTCHAR brokenbar
ENCODING 23
SWIDTH 563 0
DWIDTH 5 0
BBX 5 8 0 -2
BITMAP
20
20
20
00
20
20
20
00
ENDCHAR
STARTCHAR question
ENCODING 24
SWIDTH 563 0
DWIDTH 5 0
BBX 5 8 0 -2
BITMAP
30
48
08
10
20
00
20
00
ENDCHAR
STARTCHAR exclam
ENCODING 25
SWIDTH 563 0
DWIDTH 5 0
BBX 5 8 0 -2
BITMAP
20
20
20
20
20
00
20
00
ENDCHAR
STARTCHAR dollar
ENCODING 26
SWIDTH 563 0
DWIDTH 5 0
BBX 5 8 0 -2
BITMAP
20
78
a0
70
28
f0
20
00
ENDCHAR
STARTCHAR cent
ENCODING 27
SWIDTH 563 0
DWIDTH 5 0
BBX 5 8 0 -2
BITMAP
00
20
70
60
70
20
00
00
ENDCHAR
STARTCHAR sterling
ENCODING 28
SWIDTH 563 0
DWIDTH 5 0
BBX 5 8 0 -2
BITMAP
30
20
20
70
20
68
70
00
ENDCHAR
STARTCHAR yen
ENCODING 29
SWIDTH 563 0
DWIDTH 5 0
BBX 5 8 0 -2
BITMAP
88
50
20
70
20
20
20
00
ENDCHAR
STARTCHAR paragraph
ENCODING 30
SWIDTH 563 0
DWIDTH 5 0
BBX 5 8 0 -2
BITMAP
00
60
50
60
58
48
48
00
ENDCHAR
STARTCHAR currency
ENCODING 31
SWIDTH 563 0
DWIDTH 5 0
BBX 5 8 0 -2
BITMAP
00
d8
70
50
70
d8
00
00
ENDCHAR
STARTCHAR 0
ENCODING 32
SWIDTH 563 0
DWIDTH 5 0
BBX 5 8 0 -2
BITMAP
30
48
48
48
48
48
30
00
ENDCHAR
STARTCHAR 1
ENCODING 33
SWIDTH 563 0
DWIDTH 5 0
BBX 5 8 0 -2
BITMAP
10
30
10
10
10
10
10
00
ENDCHAR
STARTCHAR 2
ENCODING 34
SWIDTH 563 0
DWIDTH 5 0
BBX 5 8 0 -2
BITMAP
30
48
08
10
20
40
78
00
ENDCHAR
STARTCHAR 3
ENCODING 35
SWIDTH 563 0
DWIDTH 5 0
BBX 5 8 0 -2
BITMAP
30
48
08
30
08
48
30
00
ENDCHAR
STARTCHAR 4
ENCODING 36
SWIDTH 563 0
DWIDTH 5 0
BBX 5 8 0 -2
BITMAP
08
28
28
48
78
08
08
00
ENDCHAR
STARTCHAR 5
ENCODING 37
SWIDTH 563 0
DWIDTH 5 0
BBX 5 8 0 -2
BITMAP
78
40
40
70
08
08
70
00
ENDCHAR
STARTCHAR 6
ENCODING 38
SWIDTH 563 0
DWIDTH 5 0
BBX 5 8 0 -2
BITMAP
10
20
40
70
48
48
30
00
ENDCHAR
STARTCHAR 7
ENCODING 39
SWIDTH 563 0
DWIDTH 5 0
BBX 5 8 0 -2
BITMAP
78
08
10
20
20
20
20
00
ENDCHAR
STARTCHAR 8
ENCODING 40
SWIDTH 563 0
DWIDTH 5 0
BBX 5 8 0 -2
BITMAP
30
48
48
30
48
48
30
00
ENDCHAR
STARTCHAR 9
ENCODING 41
SWIDTH 563 0
DWIDTH 5 0
BBX 5 8 0 -2
BITMAP
30
48
48
38
08
10
20
00
ENDCHAR
STARTCHAR ssharp
ENCODING 42
SWIDTH 563 0
DWIDTH 5 0
BBX 5 8 0 -2
BITMAP
30
48
48
50
48
48
50
00
ENDCHAR
STARTCHAR section
ENCODING 43
SWIDTH 563 0
DWIDTH 5 0
BBX 5 8 0 -2
BITMAP
18
20
50
48
28
10
60
00
ENDCHAR
STARTCHAR numbersign
ENCODING 44
SWIDTH 563 0
DWIDTH 5 0
BBX 5 8 0 -2
BITMAP
00
30
78
30
78
30
00
00
ENDCHAR
STARTCHAR at
ENCODING 45
SWIDTH 563 0
DWIDTH 5 0
BBX 5 8 0 -2
BITMAP
30
48
48
58
58
40
38
00
ENDCHAR
STARTCHAR percent
ENCODING 46
SWIDTH 563 0
DWIDTH 5 0
BBX 5 8 0 -2
BITMAP
48
48
10
10
20
28
48
00
ENDCHAR
STARTCHAR underscore
ENCODING 47
SWIDTH 563 0
DWIDTH 5 0
BBX 5 8 0 -2
BITMAP
00
00
00
00
00
00
78
00
ENDCHAR
STARTCHAR ampersand
ENCODING 48
SWIDTH 563 0
DWIDTH 5 0
BBX 5 8 0 -2
BITMAP
30
48
30
60
50
48
38
00
ENDCHAR
STARTCHAR minus
ENCODING 49
SWIDTH 563 0
DWIDTH 5 0
BBX 5 8 0 -2
BITMAP
00
00
00
70
00
00
00
00
ENDCHAR
STARTCHAR period
ENCODING 50
SWIDTH 563 0
DWIDTH 5 0
BBX 5 8 0 -2
BITMAP
00
00
00
00
00
20
20
00
ENDCHAR
STARTCHAR comma
ENCODING 51
SWIDTH 563 0
DWIDTH 5 0
BBX 5 8 0 -2
BITMAP
00
00
00
00
00
20
20
40
ENDCHAR
STARTCHAR colon
ENCODING 52
SWIDTH 563 0
DWIDTH 5 0
BBX 5 8 0 -2
BITMAP
00
00
20
20
00
20
20
00
ENDCHAR
STARTCHAR plus
ENCODING 53
SWIDTH 563 0
DWIDTH 5 0
BBX 5 8 0 -2
BITMAP
00
00
20
70
20
00
00
00
ENDCHAR
STARTCHAR notsign
ENCODING 54
SWIDTH 563 0
DWIDTH 5 0
BBX 5 8 0 -2
BITMAP
78
08
00
00
00
00
00
00
ENDCHAR
STARTCHAR macron
ENCODING 55
SWIDTH 563 0
DWIDTH 5 0
BBX 5 8 0 -2
BITMAP
78
00
00
00
00
00
00
00
ENDCHAR
STARTCHAR degree
ENCODING 56
SWIDTH 563 0
DWIDTH 5 0
BBX 5 8 0 -2
BITMAP
20
50
20
00
00
00
00
00
ENDCHAR
STARTCHAR periodcentered
ENCODING 57
SWIDTH 563 0
DWIDTH 5 0
BBX 5 8 0 -2
BITMAP
00
00
20
20
00
00
00
00
ENDCHAR
STARTCHAR asciicircum
ENCODING 58
SWIDTH 563 0
DWIDTH 5 0
BBX 5 8 0 -2
BITMAP
20
50
00
00
00
00
00
00
ENDCHAR
STARTCHAR asciitilde
ENCODING 59
SWIDTH 563 0
DWIDTH 5 0
BBX 5 8 0 -2
BITMAP
28
50
00
00
00
00
00
00
ENDCHAR
STARTCHAR diaeresis
ENCODING 60
SWIDTH 563 0
DWIDTH 5 0
BBX 5 8 0 -2
BITMAP
50
00
00
00
00
00
00
00
ENDCHAR
STARTCHAR grave
ENCODING 61
SWIDTH 563 0
DWIDTH 5 0
BBX 5 8 0 -2
BITMAP
20
10
00
00
00
00
00
00
ENDCHAR
STARTCHAR acute
ENCODING 62
SWIDTH 563 0
DWIDTH 5 0
BBX 5 8 0 -2
BITMAP
10
20
00
00
00
00
00
00
ENDCHAR
STARTCHAR cedilla
ENCODING 63
SWIDTH 563 0
DWIDTH 5 0
BBX 5 8 0 -2
BITMAP
00
00
00
00
00
00
20
60
ENDCHAR
STARTCHAR agrave
ENCODING 64
SWIDTH 563 0
DWIDTH 5 0
BBX 5 8 0 -2
BITMAP
20
10
70
08
78
48
38
00
ENDCHAR
STARTCHAR egrave
ENCODING 65
SWIDTH 563 0
DWIDTH 5 0
BBX 5 8 0 -2
BITMAP
20
10
30
48
78
40
38
00
ENDCHAR
STARTCHAR igrave
ENCODING 66
SWIDTH 563 0
DWIDTH 5 0
BBX 5 8 0 -2
BITMAP
20
10
20
20
20
20
20
00
ENDCHAR
STARTCHAR ograve
ENCODING 67
SWIDTH 563 0
DWIDTH 5 0
BBX 5 8 0 -2
BITMAP
20
10
30
48
48
48
30
00
ENDCHAR
STARTCHAR ugrave
ENCODING 68
SWIDTH 563 0
DWIDTH 5 0
BBX 5 8 0 -2
BITMAP
20
10
48
48
48
48
30
00
ENDCHAR
STARTCHAR atilde
ENCODING 69
SWIDTH 563 0
DWIDTH 5 0
BBX 5 8 0 -2
BITMAP
28
50
78
08
78
48
38
00
ENDCHAR
STARTCHAR otilde
ENCODING 70
SWIDTH 563 0
DWIDTH 5 0
BBX 5 8 0 -2
BITMAP
28
50
30
48
48
48
30
00
ENDCHAR
STARTCHAR ydiaeresis
ENCODING 71
SWIDTH 563 0
DWIDTH 5 0
BBX 5 8 0 -2
BITMAP
50
00
48
48
48
28
10
60
ENDCHAR
STARTCHAR Yacute
ENCODING 72
SWIDTH 563 0
DWIDTH 5 0
BBX 5 8 0 -2
BITMAP
10
68
48
48
38
08
70
00
ENDCHAR
STARTCHAR yacute
ENCODING 73
SWIDTH 563 0
DWIDTH 5 0
BBX 5 8 0 -2
BITMAP
10
20
48
48
48
28
10
60
ENDCHAR
STARTCHAR eacute
ENCODING 74
SWIDTH 563 0
DWIDTH 5 0
BBX 5 8 0 -2
BITMAP
10
20
30
48
78
40
38
00
ENDCHAR
STARTCHAR onequarter
ENCODING 75
SWIDTH 563 0
DWIDTH 5 0
BBX 5 8 0 -2
BITMAP
40
40
40
10
30
78
10
00
ENDCHAR
STARTCHAR onehalf
ENCODING 76
SWIDTH 563 0
DWIDTH 5 0
BBX 5 8 0 -2
BITMAP
40
40
40
30
08
10
38
00
ENDCHAR
STARTCHAR threequarters
ENCODING 77
SWIDTH 563 0
DWIDTH 5 0
BBX 5 8 0 -2
BITMAP
40
60
20
50
30
78
10
00
ENDCHAR
STARTCHAR udiaeresis
ENCODING 78
SWIDTH 563 0
DWIDTH 5 0
BBX 5 8 0 -2
BITMAP
50
00
48
48
48
48
30
00
ENDCHAR
STARTCHAR ccedilla
ENCODING 79
SWIDTH 563 0
DWIDTH 5 0
BBX 5 8 0 -2
BITMAP
00
00
38
40
40
40
38
10
ENDCHAR
STARTCHAR adiaeresis
ENCODING 80
SWIDTH 563 0
DWIDTH 5 0
BBX 5 8 0 -2
BITMAP
50
00
70
08
78
48
38
00
ENDCHAR
STARTCHAR ediaeresis
ENCODING 81
SWIDTH 563 0
DWIDTH 5 0
BBX 5 8 0 -2
BITMAP
50
00
30
48
78
40
38
00
ENDCHAR
STARTCHAR idiaeresis
ENCODING 82
SWIDTH 563 0
DWIDTH 5 0
BBX 5 8 0 -2
BITMAP
50
00
20
20
20
20
20
00
ENDCHAR
STARTCHAR odiaeresis
ENCODING 83
SWIDTH 563 0
DWIDTH 5 0
BBX 5 8 0 -2
BITMAP
50
00
30
48
48
48
30
00
ENDCHAR
STARTCHAR mu
ENCODING 84
SWIDTH 563 0
DWIDTH 5 0
BBX 5 8 0 -2
BITMAP
50
00
48
48
48
48
30
00
ENDCHAR
STARTCHAR acircumflex
ENCODING 85
SWIDTH 563 0
DWIDTH 5 0
BBX 5 8 0 -2
BITMAP
20
50
70
08
78
48
38
00
ENDCHAR
STARTCHAR ecircumflex
ENCODING 86
SWIDTH 563 0
DWIDTH 5 0
BBX 5 8 0 -2
BITMAP
20
50
30
48
78
40
38
00
ENDCHAR
STARTCHAR icircumflex
ENCODING 87
SWIDTH 563 0
DWIDTH 5 0
BBX 5 8 0 -2
BITMAP
20
50
20
20
20
20
20
00
ENDCHAR
STARTCHAR ocircumflex
ENCODING 88
SWIDTH 563 0
DWIDTH 5 0
BBX 5 8 0 -2
BITMAP
20
50
30
48
48
48
30
00
ENDCHAR
STARTCHAR ucircumflex
ENCODING 89
SWIDTH 563 0
DWIDTH 5 0
BBX 5 8 0 -2
BITMAP
20
50
48
48
48
48
30
00
ENDCHAR
STARTCHAR aacute
ENCODING 90
SWIDTH 563 0
DWIDTH 5 0
BBX 5 8 0 -2
BITMAP
10
20
70
08
78
48
38
00
ENDCHAR
STARTCHAR multiply
ENCODING 91
SWIDTH 563 0
DWIDTH 5 0
BBX 5 8 0 -2
BITMAP
00
00
50
20
50
00
00
00
ENDCHAR
STARTCHAR iacute
ENCODING 92
SWIDTH 563 0
DWIDTH 5 0
BBX 5 8 0 -2
BITMAP
20
40
20
20
20
20
20
00
ENDCHAR
STARTCHAR oacute
ENCODING 93
SWIDTH 563 0
DWIDTH 5 0
BBX 5 8 0 -2
BITMAP
10
20
30
48
48
48
30
00
ENDCHAR
STARTCHAR uacute
ENCODING 94
SWIDTH 563 0
DWIDTH 5 0
BBX 5 8 0 -2
BITMAP
10
20
48
48
48
48
30
00
ENDCHAR
STARTCHAR ntilde
ENCODING 95
SWIDTH 563 0
DWIDTH 5 0
BBX 5 8 0 -2
BITMAP
28
50
70
48
48
48
48
00
ENDCHAR
STARTCHAR Agrave
ENCODING 96
SWIDTH 563 0
DWIDTH 5 0
BBX 5 8 0 -2
BITMAP
20
30
48
48
78
48
48
00
ENDCHAR
STARTCHAR Egrave
ENCODING 97
SWIDTH 563 0
DWIDTH 5 0
BBX 5 8 0 -2
BITMAP
20
78
40
78
40
40
78
00
ENDCHAR
STARTCHAR Igrave
ENCODING 98
SWIDTH 563 0
DWIDTH 5 0
BBX 5 8 0 -2
BITMAP
20
30
20
20
20
20
20
00
ENDCHAR
STARTCHAR Ograve
ENCODING 99
SWIDTH 563 0
DWIDTH 5 0
BBX 5 8 0 -2
BITMAP
20
30
48
48
48
48
30
00
ENDCHAR
STARTCHAR Ugrave
ENCODING 100
SWIDTH 563 0
DWIDTH 5 0
BBX 5 8 0 -2
BITMAP
20
58
48
48
48
48
30
00
ENDCHAR
STARTCHAR Atilde
ENCODING 101
SWIDTH 563 0
DWIDTH 5 0
BBX 5 8 0 -2
BITMAP
78
30
48
48
78
48
48
00
ENDCHAR
STARTCHAR Otilde
ENCODING 102
SWIDTH 563 0
DWIDTH 5 0
BBX 5 8 0 -2
BITMAP
78
30
48
48
48
48
30
00
ENDCHAR
STARTCHAR onesuperior
ENCODING 103
SWIDTH 563 0
DWIDTH 5 0
BBX 5 8 0 -2
BITMAP
20
60
20
20
20
00
00
00
ENDCHAR
STARTCHAR twosuperior
ENCODING 104
SWIDTH 563 0
DWIDTH 5 0
BBX 6 8 0 -2
BITMAP
60
10
20
40
70
00
00
00
ENDCHAR
STARTCHAR threesuperior
ENCODING 105
SWIDTH 563 0
DWIDTH 5 0
BBX 5 8 0 -2
BITMAP
60
10
20
10
60
00
00
00
ENDCHAR
STARTCHAR ordfeminine
ENCODING 106
SWIDTH 563 0
DWIDTH 5 0
BBX 5 8 0 -2
BITMAP
30
08
78
48
38
00
78
00
ENDCHAR
STARTCHAR masculine
ENCODING 107
SWIDTH 563 0
DWIDTH 5 0
BBX 5 8 0 -2
BITMAP
30
48
48
48
30
00
78
00
ENDCHAR
STARTCHAR guillemotleft
ENCODING 108
SWIDTH 563 0
DWIDTH 5 0
BBX 5 8 0 -2
BITMAP
00
28
50
a0
50
28
00
00
ENDCHAR
STARTCHAR guillemotright
ENCODING 109
SWIDTH 563 0
DWIDTH 5 0
BBX 5 8 0 -2
BITMAP
00
a0
50
28
50
a0
00
00
ENDCHAR
STARTCHAR exclamdown
ENCODING 110
SWIDTH 563 0
DWIDTH 5 0
BBX 5 8 0 -2
BITMAP
20
00
20
20
20
20
20
00
ENDCHAR
STARTCHAR questiondown
ENCODING 111
SWIDTH 563 0
DWIDTH 5 0
BBX 5 8 0 -2
BITMAP
20
00
20
40
80
90
60
00
ENDCHAR
STARTCHAR Adiaeresis
ENCODING 112
SWIDTH 563 0
DWIDTH 5 0
BBX 5 8 0 -2
BITMAP
50
30
48
48
78
48
48
00
ENDCHAR
STARTCHAR Ediaeresis
ENCODING 113
SWIDTH 563 0
DWIDTH 5 0
BBX 5 8 0 -2
BITMAP
50
78
40
78
40
40
78
00
ENDCHAR
STARTCHAR Idiaeresis
ENCODING 114
SWIDTH 563 0
DWIDTH 5 0
BBX 5 8 0 -2
BITMAP
50
20
20
20
20
20
20
00
ENDCHAR
STARTCHAR Odiaeresis
ENCODING 115
SWIDTH 563 0
DWIDTH 5 0
BBX 5 8 0 -2
BITMAP
50
30
48
48
48
48
30
00
ENDCHAR
STARTCHAR Udiaeresis
ENCODING 116
SWIDTH 563 0
DWIDTH 5 0
BBX 5 8 0 -2
BITMAP
50
48
48
48
48
48
30
00
ENDCHAR
STARTCHAR Acircumflex
ENCODING 117
SWIDTH 563 0
DWIDTH 5 0
BBX 5 8 0 -2
BITMAP
30
30
48
48
78
48
48
00
ENDCHAR
STARTCHAR Ecircumflex
ENCODING 118
SWIDTH 563 0
DWIDTH 5 0
BBX 5 8 0 -2
BITMAP
30
78
40
78
40
40
78
00
ENDCHAR
STARTCHAR Icircumflex
ENCODING 119
SWIDTH 563 0
DWIDTH 5 0
BBX 5 8 0 -2
BITMAP
70
20
20
20
20
20
20
00
ENDCHAR
STARTCHAR Ocircumflex
ENCODING 120
SWIDTH 563 0
DWIDTH 5 0
BBX 5 8 0 -2
BITMAP
30
30
48
48
48
48
30
00
ENDCHAR
STARTCHAR Ucircumflex
ENCODING 121
SWIDTH 563 0
DWIDTH 5 0
BBX 5 8 0 -2
BITMAP
30
48
48
48
48
48
30
00
ENDCHAR
STARTCHAR Aacute
ENCODING 122
SWIDTH 563 0
DWIDTH 5 0
BBX 5 8 0 -2
BITMAP
10
30
48
48
78
48
48
00
ENDCHAR
STARTCHAR Eacute
ENCODING 123
SWIDTH 563 0
DWIDTH 5 0
BBX 5 8 0 -2
BITMAP
10
78
40
78
40
40
78
00
ENDCHAR
STARTCHAR Iacute
ENCODING 124
SWIDTH 563 0
DWIDTH 5 0
BBX 5 8 0 -2
BITMAP
10
20
20
20
20
20
20
00
ENDCHAR
STARTCHAR Oacute
ENCODING 125
SWIDTH 563 0
DWIDTH 5 0
BBX 5 8 0 -2
BITMAP
10
30
48
48
48
48
30
00
ENDCHAR
STARTCHAR Uacute
ENCODING 126
SWIDTH 563 0
DWIDTH 5 0
BBX 5 8 0 -2
BITMAP
10
68
48
48
48
48
30
00
ENDCHAR
STARTCHAR Ntilde
ENCODING 127
SWIDTH 563 0
DWIDTH 5 0
BBX 5 8 0 -2
BITMAP
38
48
68
58
48
48
48
00
ENDCHAR
STARTCHAR a
ENCODING 128
SWIDTH 563 0
DWIDTH 5 0
BBX 5 8 0 -2
BITMAP
00
00
30
08
78
48
38
00
ENDCHAR
STARTCHAR b
ENCODING 129
SWIDTH 563 0
DWIDTH 5 0
BBX 5 8 0 -2
BITMAP
40
40
70
48
48
48
70
00
ENDCHAR
STARTCHAR c
ENCODING 130
SWIDTH 563 0
DWIDTH 5 0
BBX 5 8 0 -2
BITMAP
00
00
38
40
40
40
38
00
ENDCHAR
STARTCHAR d
ENCODING 131
SWIDTH 563 0
DWIDTH 5 0
BBX 5 8 0 -2
BITMAP
08
08
38
48
48
48
38
00
ENDCHAR
STARTCHAR e
ENCODING 132
SWIDTH 563 0
DWIDTH 5 0
BBX 5 8 0 -2
BITMAP
00
00
30
48
78
40
38
00
ENDCHAR
STARTCHAR f
ENCODING 133
SWIDTH 563 0
DWIDTH 5 0
BBX 5 8 0 -2
BITMAP
18
20
20
78
20
20
20
00
ENDCHAR
STARTCHAR g
ENCODING 134
SWIDTH 563 0
DWIDTH 5 0
BBX 5 8 0 -2
BITMAP
00
00
30
48
48
38
08
70
ENDCHAR
STARTCHAR h
ENCODING 135
SWIDTH 563 0
DWIDTH 5 0
BBX 5 8 0 -2
BITMAP
40
40
70
48
48
48
48
00
ENDCHAR
STARTCHAR i
ENCODING 136
SWIDTH 563 0
DWIDTH 5 0
BBX 5 8 0 -2
BITMAP
20
00
20
20
20
20
20
00
ENDCHAR
STARTCHAR j
ENCODING 137
SWIDTH 563 0
DWIDTH 5 0
BBX 5 8 0 -2
BITMAP
10
00
10
10
10
10
50
20
ENDCHAR
STARTCHAR k
ENCODING 138
SWIDTH 563 0
DWIDTH 5 0
BBX 5 8 0 -2
BITMAP
40
40
48
50
60
50
48
00
ENDCHAR
STARTCHAR l
ENCODING 139
SWIDTH 563 0
DWIDTH 5 0
BBX 5 8 0 -2
BITMAP
20
20
20
20
20
20
10
00
ENDCHAR
STARTCHAR m
ENCODING 140
SWIDTH 563 0
DWIDTH 5 0
BBX 5 8 0 -2
BITMAP
00
00
50
78
78
78
78
00
ENDCHAR
STARTCHAR n
ENCODING 141
SWIDTH 563 0
DWIDTH 5 0
BBX 5 8 0 -2
BITMAP
00
00
70
48
48
48
48
00
ENDCHAR
STARTCHAR o
ENCODING 142
SWIDTH 563 0
DWIDTH 5 0
BBX 5 8 0 -2
BITMAP
00
00
30
48
48
48
30
00
ENDCHAR
STARTCHAR p
ENCODING 143
SWIDTH 563 0
DWIDTH 5 0
BBX 5 8 0 -2
BITMAP
00
00
70
48
48
48
70
40
ENDCHAR
STARTCHAR q
ENCODING 144
SWIDTH 563 0
DWIDTH 5 0
BBX 5 8 0 -2
BITMAP
00
00
38
48
48
48
38
08
ENDCHAR
STARTCHAR r
ENCODING 145
SWIDTH 563 0
DWIDTH 5 0
BBX 5 8 0 -2
BITMAP
00
00
70
48
40
40
40
00
ENDCHAR
STARTCHAR s
ENCODING 146
SWIDTH 563 0
DWIDTH 5 0
BBX 5 8 0 -2
BITMAP
00
00
38
40
30
08
70
00
ENDCHAR
STARTCHAR t
ENCODING 147
SWIDTH 563 0
DWIDTH 5 0
BBX 5 8 0 -2
BITMAP
20
20
78
20
20
20
10
00
ENDCHAR
STARTCHAR u
ENCODING 148
SWIDTH 563 0
DWIDTH 5 0
BBX 5 8 0 -2
BITMAP
00
00
48
48
48
48
30
00
ENDCHAR
STARTCHAR v
ENCODING 149
SWIDTH 563 0
DWIDTH 5 0
BBX 5 8 0 -2
BITMAP
00
00
48
48
48
30
30
00
ENDCHAR
STARTCHAR w
ENCODING 150
SWIDTH 563 0
DWIDTH 5 0
BBX 5 8 0 -2
BITMAP
00
00
78
78
78
78
50
00
ENDCHAR
STARTCHAR x
ENCODING 151
SWIDTH 563 0
DWIDTH 5 0
BBX 5 8 0 -2
BITMAP
00
00
48
48
30
48
48
00
ENDCHAR
STARTCHAR y
ENCODING 152
SWIDTH 563 0
DWIDTH 5 0
BBX 5 8 0 -2
BITMAP
00
00
48
48
48
38
08
70
ENDCHAR
STARTCHAR z
ENCODING 153
SWIDTH 563 0
DWIDTH 5 0
BBX 5 8 0 -2
BITMAP
00
00
78
08
30
40
78
00
ENDCHAR
STARTCHAR ae
ENCODING 154
SWIDTH 563 0
DWIDTH 5 0
BBX 5 8 0 -2
BITMAP
00
00
78
10
78
50
38
00
ENDCHAR
STARTCHAR oslash
ENCODING 155
SWIDTH 563 0
DWIDTH 5 0
BBX 5 8 0 -2
BITMAP
00
00
30
58
78
68
30
00
ENDCHAR
STARTCHAR aring
ENCODING 156
SWIDTH 563 0
DWIDTH 5 0
BBX 5 8 0 -2
BITMAP
30
30
70
08
78
48
38
00
ENDCHAR
STARTCHAR division
ENCODING 157
SWIDTH 563 0
DWIDTH 5 0
BBX 5 8 0 -2
BITMAP
00
20
00
70
00
20
00
00
ENDCHAR
STARTCHAR fm
ENCODING 158
SWIDTH 563 0
DWIDTH 5 0
BBX 5 8 0 -2
BITMAP
70
00
20
20
00
20
20
40
ENDCHAR
STARTCHAR dup
ENCODING 159
SWIDTH 563 0
DWIDTH 5 0
BBX 5 8 0 -2
BITMAP
f8
00
20
a8
70
a8
20
00
ENDCHAR
STARTCHAR A
ENCODING 160
SWIDTH 563 0
DWIDTH 5 0
BBX 5 8 0 -2
BITMAP
30
48
48
78
48
48
48
00
ENDCHAR
STARTCHAR B
ENCODING 161
SWIDTH 563 0
DWIDTH 5 0
BBX 5 8 0 -2
BITMAP
70
48
48
70
48
48
70
00
ENDCHAR
STARTCHAR C
ENCODING 162
SWIDTH 563 0
DWIDTH 5 0
BBX 5 8 0 -2
BITMAP
30
48
40
40
40
48
30
00
ENDCHAR
STARTCHAR D
ENCODING 163
SWIDTH 563 0
DWIDTH 5 0
BBX 5 8 0 -2
BITMAP
70
48
48
48
48
48
70
00
ENDCHAR
STARTCHAR E
ENCODING 164
SWIDTH 563 0
DWIDTH 5 0
BBX 5 8 0 -2
BITMAP
78
40
40
78
40
40
78
00
ENDCHAR
STARTCHAR F
ENCODING 165
SWIDTH 563 0
DWIDTH 5 0
BBX 5 8 0 -2
BITMAP
78
40
40
78
40
40
40
00
ENDCHAR
STARTCHAR G
ENCODING 166
SWIDTH 563 0
DWIDTH 5 0
BBX 5 8 0 -2
BITMAP
30
48
40
58
48
48
30
00
ENDCHAR
STARTCHAR H
ENCODING 167
SWIDTH 563 0
DWIDTH 5 0
BBX 5 8 0 -2
BITMAP
48
48
48
78
48
48
48
00
ENDCHAR
STARTCHAR I
ENCODING 168
SWIDTH 563 0
DWIDTH 5 0
BBX 5 8 0 -2
BITMAP
20
20
20
20
20
20
20
00
ENDCHAR
STARTCHAR J
ENCODING 169
SWIDTH 563 0
DWIDTH 5 0
BBX 5 8 0 -2
BITMAP
08
08
08
08
08
48
30
00
ENDCHAR
STARTCHAR K
ENCODING 170
SWIDTH 563 0
DWIDTH 5 0
BBX 5 8 0 -2
BITMAP
48
50
60
50
50
48
48
00
ENDCHAR
STARTCHAR L
ENCODING 171
SWIDTH 563 0
DWIDTH 5 0
BBX 5 8 0 -2
BITMAP
40
40
40
40
40
40
78
00
ENDCHAR
STARTCHAR M
ENCODING 172
SWIDTH 563 0
DWIDTH 5 0
BBX 5 8 0 -2
BITMAP
48
78
78
48
48
48
48
00
ENDCHAR
STARTCHAR N
ENCODING 173
SWIDTH 563 0
DWIDTH 5 0
BBX 5 8 0 -2
BITMAP
48
48
68
58
48
48
48
00
ENDCHAR
STARTCHAR O
ENCODING 174
SWIDTH 563 0
DWIDTH 5 0
BBX 5 8 0 -2
BITMAP
30
48
48
48
48
48
30
00
ENDCHAR
STARTCHAR P
ENCODING 175
SWIDTH 563 0
DWIDTH 5 0
BBX 5 8 0 -2
BITMAP
70
48
48
70
40
40
40
00
ENDCHAR
STARTCHAR Q
ENCODING 176
SWIDTH 563 0
DWIDTH 5 0
BBX 5 8 0 -2
BITMAP
30
48
48
48
48
58
38
00
ENDCHAR
STARTCHAR R
ENCODING 177
SWIDTH 563 0
DWIDTH 5 0
BBX 5 8 0 -2
BITMAP
70
48
48
70
60
50
48
00
ENDCHAR
STARTCHAR S
ENCODING 178
SWIDTH 563 0
DWIDTH 5 0
BBX 5 8 0 -2
BITMAP
30
48
40
30
08
48
30
00
ENDCHAR
STARTCHAR T
ENCODING 179
SWIDTH 563 0
DWIDTH 5 0
BBX 5 8 0 -2
BITMAP
78
20
20
20
20
20
20
00
ENDCHAR
STARTCHAR U
ENCODING 180
SWIDTH 563 0
DWIDTH 5 0
BBX 5 8 0 -2
BITMAP
48
48
48
48
48
48
30
00
ENDCHAR
STARTCHAR V
ENCODING 181
SWIDTH 563 0
DWIDTH 5 0
BBX 5 8 0 -2
BITMAP
48
48
48
48
48
30
30
00
ENDCHAR
STARTCHAR W
ENCODING 182
SWIDTH 563 0
DWIDTH 5 0
BBX 5 8 0 -2
BITMAP
48
48
48
48
78
78
48
00
ENDCHAR
STARTCHAR X
ENCODING 183
SWIDTH 563 0
DWIDTH 5 0
BBX 5 8 0 -2
BITMAP
48
48
48
30
48
48
48
00
ENDCHAR
STARTCHAR Y
ENCODING 184
SWIDTH 563 0
DWIDTH 5 0
BBX 5 8 0 -2
BITMAP
48
48
48
38
08
08
70
00
ENDCHAR
STARTCHAR Z
ENCODING 185
SWIDTH 563 0
DWIDTH 5 0
BBX 5 8 0 -2
BITMAP
78
08
10
20
20
40
78
00
ENDCHAR
STARTCHAR AE
ENCODING 186
SWIDTH 563 0
DWIDTH 5 0
BBX 5 8 0 -2
BITMAP
38
50
50
78
50
50
58
00
ENDCHAR
STARTCHAR Ooblique
ENCODING 187
SWIDTH 563 0
DWIDTH 5 0
BBX 5 8 0 -2
BITMAP
30
48
58
78
68
48
30
00
ENDCHAR
STARTCHAR Aring
ENCODING 188
SWIDTH 563 0
DWIDTH 5 0
BBX 5 8 0 -2
BITMAP
30
30
48
48
78
48
48
00
ENDCHAR
STARTCHAR Ccedilla
ENCODING 189
SWIDTH 563 0
DWIDTH 5 0
BBX 5 8 0 -2
BITMAP
30
48
40
40
40
48
30
10
ENDCHAR
STARTCHAR semicolon
ENCODING 190
SWIDTH 563 0
DWIDTH 5 0
BBX 5 8 0 -2
BITMAP
00
00
20
20
00
20
20
40
ENDCHAR
STARTCHAR asterisk
ENCODING 191
SWIDTH 563 0
DWIDTH 5 0
BBX 5 8 0 -2
BITMAP
00
20
a8
70
a8
20
00
00
ENDCHAR
STARTCHAR c0
ENCODING 192
SWIDTH 563 0
DWIDTH 5 0
BBX 5 8 0 -2
BITMAP
00
00
00
00
00
00
00
00
ENDCHAR
STARTCHAR c1
ENCODING 193
SWIDTH 563 0
DWIDTH 5 0
BBX 5 8 0 -2
BITMAP
00
00
00
00
00
00
00
00
ENDCHAR
STARTCHAR c2
ENCODING 194
SWIDTH 563 0
DWIDTH 5 0
BBX 5 8 0 -2
BITMAP
00
00
00
00
00
00
00
00
ENDCHAR
STARTCHAR c3
ENCODING 195
SWIDTH 563 0
DWIDTH 5 0
BBX 5 8 0 -2
BITMAP
00
00
00
00
00
00
00
00
ENDCHAR
STARTCHAR c4
ENCODING 196
SWIDTH 563 0
DWIDTH 5 0
BBX 5 8 0 -2
BITMAP
00
00
00
00
00
00
00
00
ENDCHAR
STARTCHAR c5
ENCODING 197
SWIDTH 563 0
DWIDTH 5 0
BBX 5 8 0 -2
BITMAP
00
00
00
00
00
00
00
00
ENDCHAR
STARTCHAR c6
ENCODING 198
SWIDTH 563 0
DWIDTH 5 0
BBX 5 8 0 -2
BITMAP
00
00
00
00
00
00
00
00
ENDCHAR
STARTCHAR c7
ENCODING 199
SWIDTH 563 0
DWIDTH 5 0
BBX 5 8 0 -2
BITMAP
00
00
00
00
00
00
00
00
ENDCHAR
STARTCHAR c8
ENCODING 200
SWIDTH 563 0
DWIDTH 5 0
BBX 5 8 0 -2
BITMAP
00
00
00
00
00
00
00
00
ENDCHAR
STARTCHAR c9
ENCODING 201
SWIDTH 563 0
DWIDTH 5 0
BBX 5 8 0 -2
BITMAP
00
00
00
00
00
00
00
00
ENDCHAR
STARTCHAR ca
ENCODING 202
SWIDTH 563 0
DWIDTH 5 0
BBX 5 8 0 -2
BITMAP
00
00
00
00
00
00
00
00
ENDCHAR
STARTCHAR cb
ENCODING 203
SWIDTH 563 0
DWIDTH 5 0
BBX 5 8 0 -2
BITMAP
00
00
00
00
00
00
00
00
ENDCHAR
STARTCHAR cc
ENCODING 204
SWIDTH 563 0
DWIDTH 5 0
BBX 5 8 0 -2
BITMAP
00
00
00
00
00
00
00
00
ENDCHAR
STARTCHAR cd
ENCODING 205
SWIDTH 563 0
DWIDTH 5 0
BBX 5 8 0 -2
BITMAP
00
00
00
00
00
00
00
00
ENDCHAR
STARTCHAR ce
ENCODING 206
SWIDTH 563 0
DWIDTH 5 0
BBX 5 8 0 -2
BITMAP
00
00
00
00
00
00
00
00
ENDCHAR
STARTCHAR cf
ENCODING 207
SWIDTH 563 0
DWIDTH 5 0
BBX 5 8 0 -2
BITMAP
00
00
00
00
00
00
00
00
ENDCHAR
STARTCHAR copyright
ENCODING 208
SWIDTH 563 0
DWIDTH 5 0
BBX 5 8 0 -2
BITMAP
70
88
a8
c8
a8
88
70
00
ENDCHAR
STARTCHAR registered
ENCODING 209
SWIDTH 563 0
DWIDTH 5 0
BBX 5 8 0 -2
BITMAP
70
88
e8
e8
d8
88
70
00
ENDCHAR
STARTCHAR boxA
ENCODING 210
SWIDTH 563 0
DWIDTH 5 0
BBX 5 8 0 -2
BITMAP
40
a0
e0
a0
f8
88
f8
00
ENDCHAR
STARTCHAR insert
ENCODING 211
SWIDTH 563 0
DWIDTH 5 0
BBX 5 8 0 -2
BITMAP
00
20
70
d8
88
00
00
00
ENDCHAR
STARTCHAR boxB
ENCODING 212
SWIDTH 563 0
DWIDTH 5 0
BBX 5 8 0 -2
BITMAP
30
28
30
28
f8
88
f8
00
ENDCHAR
STARTCHAR box6
ENCODING 213
SWIDTH 563 0
DWIDTH 5 0
BBX 5 8 0 -2
BITMAP
f8
a8
c8
c8
f8
d8
f8
f8
ENDCHAR
STARTCHAR plusminus
ENCODING 214
SWIDTH 563 0
DWIDTH 5 0
BBX 5 8 0 -2
BITMAP
00
20
70
20
00
70
00
00
ENDCHAR
STARTCHAR ETH
ENCODING 215
SWIDTH 563 0
DWIDTH 5 0
BBX 5 8 0 -2
BITMAP
70
28
28
78
28
28
70
00
ENDCHAR
STARTCHAR rightarrow
ENCODING 216
SWIDTH 563 0
DWIDTH 5 0
BBX 5 8 0 -2
BITMAP
00
00
10
f8
10
00
00
00
ENDCHAR
STARTCHAR THORN
ENCODING 217
SWIDTH 563 0
DWIDTH 5 0
BBX 5 8 0 -2
BITMAP
40
70
48
48
70
40
40
00
ENDCHAR
STARTCHAR upshift
ENCODING 218
SWIDTH 563 0
DWIDTH 5 0
BBX 5 8 0 -2
BITMAP
20
50
88
d8
50
50
70
00
ENDCHAR
STARTCHAR human
ENCODING 219
SWIDTH 563 0
DWIDTH 5 0
BBX 5 8 0 -2
BITMAP
70
20
f8
20
20
50
88
00
ENDCHAR
STARTCHAR underB
ENCODING 220
SWIDTH 563 0
DWIDTH 5 0
BBX 5 8 0 -2
BITMAP
60
50
60
50
f8
00
00
00
ENDCHAR
STARTCHAR downshift
ENCODING 221
SWIDTH 563 0
DWIDTH 5 0
BBX 5 8 0 -2
BITMAP
70
50
50
d8
88
50
20
00
ENDCHAR
STARTCHAR boxquestion
ENCODING 222
SWIDTH 563 0
DWIDTH 5 0
BBX 5 8 0 -2
BITMAP
f8
a8
d8
98
a8
88
a8
f8
ENDCHAR
STARTCHAR boxsolid
ENCODING 223
SWIDTH 563 0
DWIDTH 5 0
BBX 5 8 0 -2
BITMAP
f8
f8
f8
f8
f8
f8
f8
f8
ENDCHAR
STARTCHAR e0
ENCODING 224
SWIDTH 563 0
DWIDTH 5 0
BBX 5 8 0 -2
BITMAP
00
00
00
00
00
00
00
00
ENDCHAR
STARTCHAR e1
ENCODING 225
SWIDTH 563 0
DWIDTH 5 0
BBX 5 8 0 -2
BITMAP
00
00
00
00
00
00
00
00
ENDCHAR
STARTCHAR e2
ENCODING 226
SWIDTH 563 0
DWIDTH 5 0
BBX 5 8 0 -2
BITMAP
00
00
00
00
00
00
00
00
ENDCHAR
STARTCHAR e3
ENCODING 227
SWIDTH 563 0
DWIDTH 5 0
BBX 5 8 0 -2
BITMAP
00
00
00
00
00
00
00
00
ENDCHAR
STARTCHAR e4
ENCODING 228
SWIDTH 563 0
DWIDTH 5 0
BBX 5 8 0 -2
BITMAP
00
00
00
00
00
00
00
00
ENDCHAR
STARTCHAR e5
ENCODING 229
SWIDTH 563 0
DWIDTH 5 0
BBX 5 8 0 -2
BITMAP
00
00
00
00
00
00
00
00
ENDCHAR
STARTCHAR e6
ENCODING 230
SWIDTH 563 0
DWIDTH 5 0
BBX 5 8 0 -2
BITMAP
00
00
00
00
00
00
00
00
ENDCHAR
STARTCHAR e7
ENCODING 231
SWIDTH 563 0
DWIDTH 5 0
BBX 5 8 0 -2
BITMAP
00
00
00
00
00
00
00
00
ENDCHAR
STARTCHAR e8
ENCODING 232
SWIDTH 563 0
DWIDTH 5 0
BBX 5 8 0 -2
BITMAP
00
00
00
00
00
00
00
00
ENDCHAR
STARTCHAR e9
ENCODING 233
SWIDTH 563 0
DWIDTH 5 0
BBX 5 8 0 -2
BITMAP
00
00
00
00
00
00
00
00
ENDCHAR
STARTCHAR ea
ENCODING 234
SWIDTH 563 0
DWIDTH 5 0
BBX 5 8 0 -2
BITMAP
00
00
00
00
00
00
00
00
ENDCHAR
STARTCHAR eb
ENCODING 235
SWIDTH 563 0
DWIDTH 5 0
BBX 5 8 0 -2
BITMAP
00
00
00
00
00
00
00
00
ENDCHAR
STARTCHAR ec
ENCODING 236
SWIDTH 563 0
DWIDTH 5 0
BBX 5 8 0 -2
BITMAP
00
00
00
00
00
00
00
00
ENDCHAR
STARTCHAR ed
ENCODING 237
SWIDTH 563 0
DWIDTH 5 0
BBX 5 8 0 -2
BITMAP
00
00
00
00
00
00
00
00
ENDCHAR
STARTCHAR ee
ENCODING 238
SWIDTH 563 0
DWIDTH 5 0
BBX 5 8 0 -2
BITMAP
00
00
00
00
00
00
00
00
ENDCHAR
STARTCHAR ef
ENCODING 239
SWIDTH 563 0
DWIDTH 5 0
BBX 5 8 0 -2
BITMAP
00
00
00
00
00
00
00
00
ENDCHAR
STARTCHAR badcommhi
ENCODING 240
SWIDTH 563 0
DWIDTH 5 0
BBX 5 8 0 -2
BITMAP
40
40
20
f8
10
10
08
00
ENDCHAR
STARTCHAR commhi
ENCODING 241
SWIDTH 563 0
DWIDTH 5 0
BBX 5 8 0 -2
BITMAP
00
00
00
f8
00
00
00
00
ENDCHAR
STARTCHAR commjag
ENCODING 242
SWIDTH 563 0
DWIDTH 5 0
BBX 5 8 0 -2
BITMAP
00
00
00
f0
20
40
f8
00
ENDCHAR
STARTCHAR commlo
ENCODING 243
SWIDTH 563 0
DWIDTH 5 0
BBX 5 8 0 -2
BITMAP
00
00
00
00
00
00
f8
00
ENDCHAR
STARTCHAR clockleft
ENCODING 244
SWIDTH 563 0
DWIDTH 5 0
BBX 5 8 0 -2
BITMAP
08
20
00
40
48
08
28
08
ENDCHAR
STARTCHAR clockright
ENCODING 245
SWIDTH 563 0
DWIDTH 5 0
BBX 5 8 0 -2
BITMAP
00
40
40
a0
20
00
40
00
ENDCHAR
STARTCHAR lock
ENCODING 246
SWIDTH 563 0
DWIDTH 5 0
BBX 5 8 0 -2
BITMAP
88
88
50
20
20
50
88
88
ENDCHAR
STARTCHAR eth
ENCODING 247
SWIDTH 563 0
DWIDTH 5 0
BBX 5 8 0 -2
BITMAP
10
18
38
48
48
48
30
00
ENDCHAR
STARTCHAR leftarrow
ENCODING 248
SWIDTH 563 0
DWIDTH 5 0
BBX 5 8 0 -2
BITMAP
00
00
40
f8
40
00
00
00
ENDCHAR
STARTCHAR thorn
ENCODING 249
SWIDTH 563 0
DWIDTH 5 0
BBX 5 8 0 -2
BITMAP
00
40
70
48
48
48
70
40
ENDCHAR
STARTCHAR keyleft
ENCODING 250
SWIDTH 563 0
DWIDTH 5 0
BBX 5 8 0 -2
BITMAP
00
00
70
58
70
00
00
00
ENDCHAR
STARTCHAR keyright
ENCODING 251
SWIDTH 563 0
DWIDTH 5 0
BBX 5 8 0 -2
BITMAP
00
00
00
f0
30
10
00
00
ENDCHAR
STARTCHAR box4
ENCODING 252
SWIDTH 563 0
DWIDTH 5 0
BBX 5 8 0 -2
BITMAP
f8
d8
d8
f8
98
98
98
f8
ENDCHAR
STARTCHAR underA
ENCODING 253
SWIDTH 563 0
DWIDTH 5 0
BBX 5 8 0 -2
BITMAP
20
20
70
50
f8
00
00
00
ENDCHAR
STARTCHAR magcard
ENCODING 254
SWIDTH 563 0
DWIDTH 5 0
BBX 5 8 0 -2
BITMAP
00
00
f8
88
f8
f8
00
00
ENDCHAR
STARTCHAR boxhuman
ENCODING 255
SWIDTH 563 0
DWIDTH 5 0
BBX 5 8 0 -2
BITMAP
f8
a8
a8
f8
a8
a8
d8
f8
ENDCHAR
STARTCHAR apl_space
ENCODING 272
SWIDTH 563 0
DWIDTH 5 0
BBX 5 8 0 -2
BITMAP
00
00
00
00
00
00
00
00
ENDCHAR
STARTCHAR apl_bracketright
ENCODING 316
SWIDTH 563 0
DWIDTH 5 0
BBX 5 8 0 -2
BITMAP
60
20
20
20
20
20
60
00
ENDCHAR
STARTCHAR apl_bracketleft
ENCODING 328
SWIDTH 563 0
DWIDTH 5 0
BBX 5 8 0 -2
BITMAP
30
20
20
20
20
20
30
00
ENDCHAR
STARTCHAR apl_stile
ENCODING 347
SWIDTH 563 0
DWIDTH 5 0
BBX 5 8 0 -2
BITMAP
20
20
20
20
20
20
20
20
ENDCHAR
STARTCHAR apl_2vertical
ENCODING 384
SWIDTH 563 0
DWIDTH 5 0
BBX 5 8 0 -2
BITMAP
50
50
50
50
50
50
50
50
ENDCHAR
STARTCHAR apl_2horizontal
ENCODING 385
SWIDTH 563 0
DWIDTH 5 0
BBX 5 8 0 -2
BITMAP
00
f8
00
00
00
00
f8
00
ENDCHAR
STARTCHAR apl_leftvbar
ENCODING 386
SWIDTH 563 0
DWIDTH 5 0
BBX 5 8 0 -2
BITMAP
40
40
40
40
40
40
40
40
ENDCHAR
STARTCHAR apl_rightvbar
ENCODING 387
SWIDTH 563 0
DWIDTH 5 0
BBX 5 8 0 -2
BITMAP
10
10
10
10
10
10
10
10
ENDCHAR
STARTCHAR apl_midvbar
ENCODING 388
SWIDTH 563 0
DWIDTH 5 0
BBX 5 8 0 -2
BITMAP
20
20
20
20
20
20
20
20
ENDCHAR
STARTCHAR apl_leftsolid
ENCODING 393
SWIDTH 563 0
DWIDTH 5 0
BBX 5 8 0 -2
BITMAP
e0
e0
e0
e0
e0
e0
e0
e0
ENDCHAR
STARTCHAR apl_rightsolid
ENCODING 394
SWIDTH 563 0
DWIDTH 5 0
BBX 5 8 0 -2
BITMAP
38
38
38
38
38
38
38
38
ENDCHAR
STARTCHAR apl_topsolid
ENCODING 395
SWIDTH 563 0
DWIDTH 5 0
BBX 5 8 0 -2
BITMAP
f8
f8
f8
f8
00
00
00
00
ENDCHAR
STARTCHAR apl_bottomsolid
ENCODING 396
SWIDTH 563 0
DWIDTH 5 0
BBX 5 8 0 -2
BITMAP
00
00
00
00
f8
f8
f8
f8
ENDCHAR
STARTCHAR apl_solid
ENCODING 397
SWIDTH 563 0
DWIDTH 5 0
BBX 5 8 0 -2
BITMAP
f8
f8
f8
f8
f8
f8
f8
f8
ENDCHAR
STARTCHAR apl_midhbar
ENCODING 402
SWIDTH 563 0
DWIDTH 5 0
BBX 5 8 0 -2
BITMAP
00
00
00
f8
00
00
00
00
ENDCHAR
STARTCHAR apl_lowerleft
ENCODING 419
SWIDTH 563 0
DWIDTH 5 0
BBX 5 8 0 -2
BITMAP
20
20
20
38
00
00
00
00
ENDCHAR
STARTCHAR apl_upperleft
ENCODING 420
SWIDTH 563 0
DWIDTH 5 0
BBX 5 8 0 -2
BITMAP
00
00
00
38
20
20
20
20
ENDCHAR
STARTCHAR apl_leftjoin
ENCODING 421
SWIDTH 563 0
DWIDTH 5 0
BBX 5 8 0 -2
BITMAP
20
20
20
38
20
20
20
20
ENDCHAR
STARTCHAR apl_bottomjoin
ENCODING 422
SWIDTH 563 0
DWIDTH 5 0
BBX 5 8 0 -2
BITMAP
20
20
20
f8
00
00
00
00
ENDCHAR
STARTCHAR apl_intersect
ENCODING 427
SWIDTH 563 0
DWIDTH 5 0
BBX 5 8 0 -2
BITMAP
20
20
20
f8
20
20
20
20
ENDCHAR
STARTCHAR apl_lowerright
ENCODING 428
SWIDTH 563 0
DWIDTH 5 0
BBX 5 8 0 -2
BITMAP
20
20
20
e0
00
00
00
00
ENDCHAR
STARTCHAR apl_upperright
ENCODING 429
SWIDTH 563 0
DWIDTH 5 0
BBX 5 8 0 -2
BITMAP
00
00
00
e0
20
20
20
20
ENDCHAR
STARTCHAR apl_rightjoin
ENCODING 430
SWIDTH 563 0
DWIDTH 5 0
BBX 5 8 0 -2
BITMAP
20
20
20
e0
20
20
20
20
ENDCHAR
STARTCHAR apl_topjoin
ENCODING 431
SWIDTH 563 0
DWIDTH 5 0
BBX 5 8 0 -2
BITMAP
00
00
00
f8
20
20
20
20
ENDCHAR
STARTCHAR dec_solid
ENCODING 512
SWIDTH 563 0
DWIDTH 5 0
BBX 5 8 0 -2
BITMAP
70
70
70
70
70
70
70
70
ENDCHAR
STARTCHAR dec_filled_circle
ENCODING 513
SWIDTH 563 0
DWIDTH 5 0
BBX 5 8 0 -2
BITMAP
00
00
20
70
20
00
00
00
ENDCHAR
STARTCHAR dec_halftone_block
ENCODING 514
SWIDTH 563 0
DWIDTH 5 0
BBX 5 8 0 -2
BITMAP
a8
50
a8
50
a8
50
a8
50
ENDCHAR
STARTCHAR dec_ht
ENCODING 515
SWIDTH 563 0
DWIDTH 5 0
BBX 5 8 0 -2
BITMAP
00
60
60
60
30
30
30
00
ENDCHAR
STARTCHAR dec_ff
ENCODING 516
SWIDTH 563 0
DWIDTH 5 0
BBX 5 8 0 -2
BITMAP
00
60
60
40
30
30
20
00
ENDCHAR
STARTCHAR dec_cr
ENCODING 517
SWIDTH 563 0
DWIDTH 5 0
BBX 5 8 0 -2
BITMAP
00
60
40
60
30
30
30
00
ENDCHAR
STARTCHAR dec_lf
ENCODING 518
SWIDTH 563 0
DWIDTH 5 0
BBX 5 8 0 -2
BITMAP
00
40
40
60
30
30
20
00
ENDCHAR
STARTCHAR dec_degree
ENCODING 519
SWIDTH 563 0
DWIDTH 5 0
BBX 5 8 0 -2
BITMAP
20
50
20
00
00
00
00
00
ENDCHAR
STARTCHAR dec_plusminus
ENCODING 520
SWIDTH 563 0
DWIDTH 5 0
BBX 5 8 0 -2
BITMAP
00
20
70
20
00
70
00
00
ENDCHAR
STARTCHAR dec_nl
ENCODING 521
SWIDTH 563 0
DWIDTH 5 0
BBX 5 8 0 -2
BITMAP
00
60
60
60
20
20
30
00
ENDCHAR
STARTCHAR dec_vt
ENCODING 522
SWIDTH 563 0
DWIDTH 5 0
BBX 5 8 0 -2
BITMAP
00
60
60
60
30
30
30
00
ENDCHAR
STARTCHAR dec_lowerright
ENCODING 523
SWIDTH 563 0
DWIDTH 5 0
BBX 5 8 0 -2
BITMAP
20
20
20
e0
00
00
00
00
ENDCHAR
STARTCHAR dec_upperright
ENCODING 524
SWIDTH 563 0
DWIDTH 5 0
BBX 5 8 0 -2
BITMAP
00
00
00
e0
20
20
20
20
ENDCHAR
STARTCHAR dec_upperleft
ENCODING 525
SWIDTH 563 0
DWIDTH 5 0
BBX 5 8 0 -2
BITMAP
00
00
00
38
20
20
20
20
ENDCHAR
STARTCHAR dec_lowerleft
ENCODING 526
SWIDTH 563 0
DWIDTH 5 0
BBX 5 8 0 -2
BITMAP
20
20
20
38
00
00
00
00
ENDCHAR
STARTCHAR dec_intersect
ENCODING 527
SWIDTH 563 0
DWIDTH 5 0
BBX 5 8 0 -2
BITMAP
20
20
20
f8
20
20
20
20
ENDCHAR
STARTCHAR dec_hbar1
ENCODING 528
SWIDTH 563 0
DWIDTH 5 0
BBX 5 8 0 -2
BITMAP
00
f8
00
00
00
00
00
00
ENDCHAR
STARTCHAR dec_hbar2
ENCODING 529
SWIDTH 563 0
DWIDTH 5 0
BBX 5 8 0 -2
BITMAP
00
00
f8
00
00
00
00
00
ENDCHAR
STARTCHAR dec_hbar3
ENCODING 530
SWIDTH 563 0
DWIDTH 5 0
BBX 5 8 0 -2
BITMAP
00
00
00
f8
00
00
00
00
ENDCHAR
STARTCHAR dec_hbar4
ENCODING 531
SWIDTH 563 0
DWIDTH 5 0
BBX 5 8 0 -2
BITMAP
00
00
00
00
f8
00
00
00
ENDCHAR
STARTCHAR dec_hbar5
ENCODING 532
SWIDTH 563 0
DWIDTH 5 0
BBX 5 8 0 -2
BITMAP
00
00
00
00
00
f8
00
00
ENDCHAR
STARTCHAR dec_leftjoin
ENCODING 533
SWIDTH 563 0
DWIDTH 5 0
BBX 5 8 0 -2
BITMAP
20
20
20
38
20
20
20
20
ENDCHAR
STARTCHAR dec_rightjoin
ENCODING 534
SWIDTH 563 0
DWIDTH 5 0
BBX 5 8 0 -2
BITMAP
20
20
20
e0
20
20
20
20
ENDCHAR
STARTCHAR dec_bottomjoin
ENCODING 535
SWIDTH 563 0
DWIDTH 5 0
BBX 5 8 0 -2
BITMAP
20
20
20
f8
00
00
00
00
ENDCHAR
STARTCHAR dec_topjoin
ENCODING 536
SWIDTH 563 0
DWIDTH 5 0
BBX 5 8 0 -2
BITMAP
00
00
00
f8
20
20
20
20
ENDCHAR
STARTCHAR dec_vbar
ENCODING 537
SWIDTH 563 0
DWIDTH 5 0
BBX 5 8 0 -2
BITMAP
20
20
20
20
20
20
20
20
ENDCHAR
STARTCHAR dec_notgreater
ENCODING 538
SWIDTH 563 0
DWIDTH 5 0
BBX 5 8 0 -2
BITMAP
00
10
20
40
20
10
70
00
ENDCHAR
STARTCHAR dec_notless
ENCODING 539
SWIDTH 563 0
DWIDTH 5 0
BBX 5 8 0 -2
BITMAP
00
40
20
10
20
40
70
00
ENDCHAR
STARTCHAR dec_pi
ENCODING 540
SWIDTH 563 0
DWIDTH 5 0
BBX 5 8 0 -2
BITMAP
00
00
f8
50
50
50
50
00
ENDCHAR
STARTCHAR dec_notequal
ENCODING 541
SWIDTH 563 0
DWIDTH 5 0
BBX 5 8 0 -2
BITMAP
00
10
70
20
70
40
00
00
ENDCHAR
STARTCHAR dec_sterling
ENCODING 542
SWIDTH 563 0
DWIDTH 5 0
BBX 5 8 0 -2
BITMAP
30
20
20
70
20
68
70
00
ENDCHAR
STARTCHAR dec_periodcentered
ENCODING 543
SWIDTH 563 0
DWIDTH 5 0
BBX 5 8 0 -2
BITMAP
00
00
20
20
00
00
00
00
ENDCHAR
ENDFONT
