#define ky_width 39
#define ky_height 14
static unsigned char ky_bits[] = {
   0x00, 0x00, 0x00, 0x00, 0x00, 0xfe, 0xff, 0xff, 0xf3, 0x3f, 0xaa, 0xaa,
   0xaa, 0x92, 0x24, 0xfe, 0xff, 0xff, 0xf3, 0x3f, 0xaa, 0xaa, 0xaa, 0x02,
   0x00, 0xfe, 0xff, 0xff, 0x03, 0x00, 0x00, 0x00, 0x00, 0x80, 0x07, 0x00,
   0x00, 0x00, 0x80, 0x04, 0xfe, 0xff, 0x7f, 0xf0, 0x3f, 0x92, 0x24, 0x49,
   0x90, 0x24, 0xfe, 0xff, 0xff, 0xf3, 0x3f, 0x92, 0x24, 0x49, 0x82, 0x04,
   0xfe, 0xff, 0xff, 0x83, 0x07, 0x00, 0x00, 0x00, 0x00, 0x00};
