#define locked_width 16
#define locked_height 14
static unsigned char locked_bits[] = {
   0xf8, 0x00, 0x04, 0x01, 0x72, 0x02, 0x8a, 0x02, 0x8a, 0x02, 0x8a, 0x02,
   0xff, 0x07, 0x55, 0x05, 0xab, 0x06, 0x55, 0x05, 0xab, 0x06, 0xff, 0x07,
   0x01, 0x04, 0xff, 0x07};
