#define no_diamond_width 10
#define no_diamond_height 10
static unsigned char no_diamond_bits[] = {
   0x00, 0x00, 0x10, 0x00, 0x68, 0x00, 0x94, 0x00, 0x0a, 0x01, 0x05, 0x02,
   0x0a, 0x01, 0x94, 0x00, 0x68, 0x00, 0x10, 0x00};
