#define no_dot_width 10
#define no_dot_height 10
static unsigned char no_dot_bits[] = {
   0x55, 0xfd, 0xaa, 0xfc, 0x01, 0xfd, 0x02, 0xfc, 0x01, 0xfd, 0x02, 0xfc,
   0x01, 0xfd, 0x02, 0xfc, 0x55, 0xfd, 0x00, 0xfc};
