#define unlocked_width 16
#define unlocked_height 14
static unsigned char unlocked_bits[] = {
   0x00, 0x3e, 0x00, 0x41, 0x80, 0x9c, 0x80, 0xa2, 0x80, 0xa2, 0x80, 0xe2,
   0xff, 0x07, 0x55, 0x05, 0xab, 0x06, 0x55, 0x05, 0xab, 0x06, 0xff, 0x07,
   0x01, 0x04, 0xff, 0x07};
