#define arrow20_width 20
#define arrow20_height 20
static unsigned char arrow20_bits[] = {
   0x00, 0x00, 0x00, 0x00, 0x00, 0x00, 0x01, 0x00, 0x00, 0x0a, 0x00, 0x00,
   0x35, 0x00, 0x00, 0xfa, 0x00, 0x00, 0xf5, 0x03, 0x00, 0xfa, 0x0f, 0x00,
   0xf5, 0x3f, 0x00, 0xfa, 0xff, 0x00, 0xf5, 0xff, 0x03, 0xfa, 0xff, 0x03,
   0xf5, 0xff, 0x00, 0xfa, 0x3f, 0x00, 0xf5, 0x0f, 0x00, 0xfa, 0x03, 0x00,
   0xf5, 0x00, 0x00, 0x3a, 0x00, 0x00, 0x05, 0x00, 0x00, 0x00, 0x00, 0x00};
