#define diamond20_width 20
#define diamond20_height 20
static unsigned char diamond20_bits[] = {
   0x00, 0x00, 0x00, 0x00, 0x00, 0x00, 0x00, 0x00, 0x00, 0x00, 0x05, 0x00,
   0x80, 0x1a, 0x00, 0x40, 0x3d, 0x00, 0xa0, 0x7e, 0x00, 0x50, 0xff, 0x00,
   0xa8, 0xff, 0x01, 0xd4, 0xff, 0x03, 0xea, 0xff, 0x07, 0xf5, 0xff, 0x07,
   0xea, 0xff, 0x03, 0xd4, 0xff, 0x01, 0xa8, 0xff, 0x00, 0x50, 0x7f, 0x00,
   0xa0, 0x3e, 0x00, 0x40, 0x1d, 0x00, 0x00, 0x00, 0x00, 0x00, 0x00, 0x00};
