#define diamond15_width 15
#define diamond15_height 15
static unsigned char diamond15_bits[] = {
   0x00, 0x00, 0x00, 0x00, 0x00, 0x00, 0x50, 0x03, 0xa8, 0x07, 0xd4, 0x0f,
   0xea, 0x1f, 0xf5, 0x3f, 0xfa, 0x7f, 0xf5, 0x3f, 0xea, 0x1f, 0xd4, 0x0f,
   0xa8, 0x07, 0x50, 0x03, 0x00, 0x00};
