#define dot_width 10
#define dot_height 10
static unsigned char dot_bits[] = {
   0x55, 0xfd, 0xaa, 0xfc, 0xfd, 0xfc, 0xfe, 0xfc, 0xfd, 0xfc, 0xfe, 0xfc,
   0xfd, 0xfc, 0xfe, 0xfc, 0x01, 0xfc, 0x00, 0xfc};
