#define dot15_width 15
#define dot15_height 15
static unsigned char dot15_bits[] = {
   0x55, 0x55, 0xaa, 0x2a, 0x55, 0x15, 0xfa, 0x0f, 0xfd, 0x0f, 0xfa, 0x0f,
   0xfd, 0x0f, 0xfa, 0x0f, 0xfd, 0x0f, 0xfa, 0x0f, 0xfd, 0x0f, 0xfa, 0x0f,
   0x05, 0x00, 0x02, 0x00, 0x01, 0x00};
