#define dot20_width 20
#define dot20_height 20
static unsigned char dot20_bits[] = {
   0x55, 0x55, 0x05, 0xaa, 0xaa, 0x02, 0x55, 0x55, 0x01, 0xaa, 0xaa, 0x00,
   0xf5, 0xff, 0x00, 0xfa, 0xff, 0x00, 0xf5, 0xff, 0x00, 0xfa, 0xff, 0x00,
   0xf5, 0xff, 0x00, 0xfa, 0xff, 0x00, 0xf5, 0xff, 0x00, 0xfa, 0xff, 0x00,
   0xf5, 0xff, 0x00, 0xfa, 0xff, 0x00, 0xf5, 0xff, 0x00, 0xfa, 0xff, 0x00,
   0x05, 0x00, 0x00, 0x02, 0x00, 0x00, 0x01, 0x00, 0x00, 0x00, 0x00, 0x00};
