#define locked15_width 24
#define locked15_height 21
static unsigned char locked15_bits[] = {
   0xe0, 0x0f, 0x00, 0x10, 0x10, 0x00, 0x08, 0x20, 0x00, 0x84, 0x43, 0x00,
   0x44, 0x44, 0x00, 0x24, 0x48, 0x00, 0x24, 0x48, 0x00, 0x24, 0x48, 0x00,
   0x24, 0x48, 0x00, 0xff, 0xff, 0x01, 0x55, 0x55, 0x01, 0xab, 0xaa, 0x01,
   0x55, 0x55, 0x01, 0xab, 0xaa, 0x01, 0x55, 0x55, 0x01, 0xab, 0xaa, 0x01,
   0x55, 0x55, 0x01, 0xff, 0xff, 0x01, 0x01, 0x00, 0x01, 0x01, 0x00, 0x01,
   0xff, 0xff, 0x01};
