#define no_dot15_width 15
#define no_dot15_height 15
static unsigned char no_dot15_bits[] = {
   0x55, 0x55, 0xaa, 0x2a, 0x55, 0x15, 0x02, 0x08, 0x05, 0x00, 0x02, 0x08,
   0x05, 0x00, 0x02, 0x08, 0x05, 0x00, 0x02, 0x08, 0x05, 0x00, 0xaa, 0x0a,
   0x05, 0x00, 0x02, 0x00, 0x01, 0x00};
