#define no_diamond20_width 20
#define no_diamond20_height 20
static unsigned char no_diamond20_bits[] = {
   0x00, 0x00, 0x00, 0x00, 0x00, 0x00, 0x00, 0x00, 0x00, 0x00, 0x05, 0x00,
   0x80, 0x1a, 0x00, 0x40, 0x25, 0x00, 0xa0, 0x42, 0x00, 0x50, 0x81, 0x00,
   0xa8, 0x00, 0x01, 0x54, 0x00, 0x02, 0x2a, 0x00, 0x04, 0x15, 0x00, 0x04,
   0x2a, 0x00, 0x02, 0x54, 0x00, 0x01, 0xa8, 0x80, 0x00, 0x50, 0x41, 0x00,
   0xa0, 0x22, 0x00, 0x40, 0x1d, 0x00, 0x00, 0x00, 0x00, 0x00, 0x00, 0x00};
