#define no_dot20_width 20
#define no_dot20_height 20
static unsigned char no_dot20_bits[] = {
   0x55, 0x55, 0x05, 0xaa, 0xaa, 0x02, 0x55, 0x55, 0x01, 0xaa, 0xaa, 0x00,
   0x05, 0x00, 0x01, 0x0a, 0x00, 0x00, 0x05, 0x00, 0x01, 0x0a, 0x00, 0x00,
   0x05, 0x00, 0x01, 0x0a, 0x00, 0x00, 0x05, 0x00, 0x01, 0x0a, 0x00, 0x00,
   0x05, 0x00, 0x01, 0x0a, 0x00, 0x00, 0x05, 0x00, 0x01, 0x0a, 0x00, 0x00,
   0x55, 0x55, 0x01, 0x02, 0x00, 0x00, 0x01, 0x00, 0x00, 0x00, 0x00, 0x00};
