#define no_diamond15_width 15
#define no_diamond15_height 15
static unsigned char no_diamond15_bits[] = {
   0x00, 0x00, 0x00, 0x00, 0x00, 0x00, 0x50, 0x03, 0xa8, 0x04, 0x54, 0x08,
   0x2a, 0x10, 0x15, 0x20, 0x0a, 0x40, 0x15, 0x20, 0x2a, 0x10, 0x54, 0x08,
   0xa8, 0x04, 0x50, 0x03, 0x00, 0x00};
