#define unlocked15_width 24
#define unlocked15_height 21
static unsigned char unlocked15_bits[] = {
   0x00, 0xc0, 0x1f, 0x00, 0x20, 0x20, 0x00, 0x10, 0x40, 0x00, 0x08, 0x87,
   0x00, 0x88, 0x88, 0x00, 0x48, 0x90, 0x00, 0x48, 0x90, 0x00, 0x48, 0x90,
   0x00, 0x48, 0xf0, 0xff, 0xff, 0x01, 0x55, 0x55, 0x01, 0xab, 0xaa, 0x01,
   0x55, 0x55, 0x01, 0xab, 0xaa, 0x01, 0x55, 0x55, 0x01, 0xab, 0xaa, 0x01,
   0x55, 0x55, 0x01, 0xff, 0xff, 0x01, 0x01, 0x00, 0x01, 0x01, 0x00, 0x01,
   0xff, 0xff, 0x01};
